<svg width="31" height="31" viewBox="0 0 31 31" fill="none" xmlns="http://www.w3.org/2000/svg">
<path d="M26.0791 27.0518V29.3962C26.0793 29.5377 26.0514 29.6779 25.9973 29.8087C25.9431 29.9395 25.8639 30.0582 25.7637 30.1583C25.6636 30.2583 25.5446 30.3375 25.4138 30.3915C25.283 30.4455 25.1428 30.4733 25.0013 30.473H22.8457C22.7041 30.4733 22.564 30.4455 22.4331 30.3915C22.3023 30.3375 22.1834 30.2583 22.0833 30.1583C21.9832 30.0582 21.9038 29.9395 21.8496 29.8087C21.7955 29.6779 21.7678 29.5377 21.7679 29.3962V27.0518M9.37639 27.0518V29.3962C9.37653 29.5377 9.34879 29.6779 9.29466 29.8087C9.24053 29.9395 9.16113 30.0582 9.061 30.1583C8.96087 30.2583 8.842 30.3375 8.71118 30.3915C8.58035 30.4455 8.44005 30.4733 8.29852 30.473H6.14292C6.00139 30.4733 5.86122 30.4455 5.73039 30.3915C5.59957 30.3375 5.4807 30.2583 5.38057 30.1583C5.28045 30.0582 5.20104 29.9395 5.14691 29.8087C5.09278 29.6779 5.06504 29.5377 5.06518 29.3962V27.0518" fill="#2B4255"/>
<path d="M28.2337 27.1803H2.90958V3.56943C2.90929 3.20817 2.98028 2.85048 3.11859 2.51675C3.2569 2.18302 3.45971 1.87986 3.71547 1.62471C3.97123 1.36957 4.27492 1.16736 4.60898 1.02984C4.94305 0.892327 5.30094 0.822222 5.6622 0.823378H25.4809C25.8422 0.822222 26.2001 0.892327 26.5341 1.02984C26.8682 1.16736 27.1719 1.36957 27.4276 1.62471C27.6834 1.87986 27.8862 2.18302 28.0245 2.51675C28.1628 2.85048 28.2339 3.20817 28.2337 3.56943V27.1803Z" fill="#F8B84E"/>
<path d="M1.85261 21.699H29.2917V24.9917H1.85261V21.699Z" fill="#34485C"/>
<path d="M3.556 6.42201H15.4097V17.3976H3.556V6.42201ZM15.7916 6.42201H27.3731V17.3976H15.7916V6.42201Z" fill="#4BBFEB"/>
<path fill-rule="evenodd" clip-rule="evenodd" d="M2.90958 5.66366V6.76122H28.2237V5.66366H2.90958ZM2.90958 16.9773V18.0749H28.2523V16.9773H2.90958Z" fill="#34485C"/>
<path fill-rule="evenodd" clip-rule="evenodd" d="M4.73479 19.1329V20.2305H8.02748V19.1329H4.73479ZM23.0553 19.1329V20.2305H26.348V19.1329H23.0553Z" fill="#F05542"/>
<path fill-rule="evenodd" clip-rule="evenodd" d="M15.0234 6.11356V17.4185H16.1209V6.11356H15.0234Z" fill="#34485C"/>
<path fill-rule="evenodd" clip-rule="evenodd" d="M0.206268 7.82475V12.4158H1.30383V8.92231H2.95018V7.82475H0.206268ZM28.1941 7.82475V8.92231H29.8405V12.4158H30.938V7.82475H28.1941Z" fill="#576D7E"/>
<path fill-rule="evenodd" clip-rule="evenodd" d="M2.90958 6.11356V17.4185H4.00714V6.11356H2.90958ZM27.1547 6.11356V17.4185H28.2523V6.11356H27.1547Z" fill="#34485C"/>
</svg>
