<svg width="12" height="12" viewBox="0 0 12 12" fill="none" xmlns="http://www.w3.org/2000/svg">
<path d="M8.49991 0.999911C9.16239 1.00189 9.79717 1.26594 10.2656 1.73438C10.7341 2.20283 10.9981 2.83761 11.0001 3.50009V8.49991C10.9981 9.16239 10.7341 9.79717 10.2656 10.2656C9.79717 10.7341 9.16239 10.9981 8.49991 11.0001H3.50009C2.83761 10.9981 2.20283 10.7341 1.73438 10.2656C1.26594 9.79717 1.00189 9.16239 0.999911 8.49991V3.50009C1.00189 2.83761 1.26594 2.20283 1.73438 1.73438C2.20283 1.26594 2.83761 1.00189 3.50009 0.999911H8.49991ZM8.49991 0H3.50009C1.575 0 0 1.575 0 3.50009V8.49991C0 10.425 1.575 12 3.50009 12H8.49991C10.425 12 12 10.425 12 8.49991V3.50009C12 1.575 10.425 0 8.49991 0Z" fill="white"/>
</svg>
