<svg width="205" height="27" viewBox="0 0 205 27" fill="none" xmlns="http://www.w3.org/2000/svg">
<path d="M6.56591 1.376C8.17391 0.775999 9.62591 0.511998 10.9219 0.583999C12.2419 0.655999 13.4179 0.991999 14.4499 1.592C15.4819 2.168 16.3579 2.948 17.0779 3.932C17.8219 4.916 18.4219 6.02 18.8779 7.244C19.2379 8.156 19.5139 9.116 19.7059 10.124C19.8979 11.132 20.0059 12.14 20.0299 13.148C20.0779 14.132 20.0419 15.104 19.9219 16.064C19.8259 17.024 19.6579 17.912 19.4179 18.728C19.2739 19.28 19.1059 19.784 18.9139 20.24C18.7219 20.696 18.4939 21.152 18.2299 21.608C17.6299 22.64 16.8499 23.48 15.8899 24.128C14.9539 24.776 13.9219 25.232 12.7939 25.496C12.0259 25.688 11.2339 25.784 10.4179 25.784C9.60191 25.76 8.79791 25.652 8.00591 25.46C7.21391 25.244 6.44591 24.944 5.70191 24.56C4.98191 24.152 4.32191 23.648 3.72191 23.048C2.97791 22.328 2.36591 21.5 1.88591 20.564C1.40591 19.604 1.03391 18.608 0.769906 17.576C0.505906 16.52 0.337906 15.464 0.265906 14.408C0.193906 13.352 0.193906 12.344 0.265906 11.384C0.337906 10.496 0.505906 9.548 0.769906 8.54C1.05791 7.532 1.46591 6.56 1.99391 5.624C2.52191 4.688 3.15791 3.848 3.90191 3.104C4.66991 2.336 5.55791 1.76 6.56591 1.376ZM14.9899 16.784C15.2779 15.656 15.3979 14.384 15.3499 12.968C15.3019 11.552 15.0739 10.22 14.6659 8.972C14.4019 8.204 14.0659 7.532 13.6579 6.956C13.2739 6.356 12.8059 5.9 12.2539 5.588C11.7259 5.276 11.1019 5.12 10.3819 5.12C9.66191 5.12 8.85791 5.336 7.96991 5.768C7.44191 6.032 6.98591 6.392 6.60191 6.848C6.24191 7.304 5.94191 7.82 5.70191 8.396C5.48591 8.972 5.30591 9.572 5.16191 10.196C5.04191 10.82 4.96991 11.42 4.94591 11.996C4.89791 12.62 4.88591 13.28 4.90991 13.976C4.93391 14.648 5.00591 15.332 5.12591 16.028C5.26991 16.7 5.46191 17.348 5.70191 17.972C5.94191 18.572 6.26591 19.112 6.67391 19.592C7.29791 20.312 8.01791 20.816 8.83391 21.104C9.67391 21.368 10.5019 21.404 11.3179 21.212C12.6379 20.924 13.6459 20.048 14.3419 18.584C14.6299 18.056 14.8459 17.456 14.9899 16.784ZM37.7712 17.432C37.7232 18.224 37.6752 19.028 37.6272 19.844C37.5792 20.636 37.4472 21.404 37.2312 22.148C37.0392 22.892 36.7272 23.564 36.2952 24.164C35.8872 24.764 35.2992 25.244 34.5312 25.604C33.8592 25.94 33.1392 26.168 32.3712 26.288C31.6032 26.432 30.8352 26.492 30.0672 26.468C29.2992 26.444 28.5552 26.324 27.8352 26.108C27.1152 25.916 26.4672 25.64 25.8912 25.28C25.3152 24.92 24.8472 24.452 24.4872 23.876C24.1272 23.3 23.8392 22.676 23.6232 22.004C23.4312 21.332 23.2992 20.636 23.2272 19.916C23.1552 19.196 23.1072 18.524 23.0832 17.9C22.9872 16.244 22.9872 14.612 23.0832 13.004C23.0832 12.692 23.0832 12.344 23.0832 11.96C23.0832 11.552 23.1072 11.156 23.1552 10.772C23.2272 10.388 23.3352 10.04 23.4792 9.728C23.6232 9.392 23.8632 9.14 24.1992 8.972C24.9192 8.588 25.5792 8.564 26.1792 8.9C26.8032 9.236 27.1752 9.932 27.2952 10.988C27.3672 11.54 27.3912 12.152 27.3672 12.824C27.3672 13.496 27.3912 14.108 27.4392 14.66C27.4632 15.476 27.4872 16.364 27.5112 17.324C27.5352 18.26 27.6672 19.1 27.9072 19.844C28.1712 20.588 28.5912 21.152 29.1672 21.536C29.7672 21.896 30.6552 21.908 31.8312 21.572C32.3832 21.404 32.7432 20.984 32.9112 20.312C33.1032 19.64 33.1992 18.644 33.1992 17.324C33.1992 16.748 33.1872 16.112 33.1632 15.416C33.1392 14.72 33.1272 14.036 33.1272 13.364C33.1272 12.668 33.1392 12.032 33.1632 11.456C33.2112 10.856 33.2832 10.4 33.3792 10.088C33.4992 9.656 33.7512 9.332 34.1352 9.116C34.5192 8.9 34.9272 8.792 35.3592 8.792C35.7912 8.768 36.1992 8.852 36.5832 9.044C36.9672 9.236 37.2312 9.548 37.3752 9.98C37.5192 10.364 37.6152 10.856 37.6632 11.456C37.7352 12.032 37.7832 12.668 37.8072 13.364C37.8312 14.036 37.8312 14.732 37.8072 15.452C37.8072 16.148 37.7952 16.808 37.7712 17.432ZM40.7651 13.256C40.7651 12.968 40.7651 12.644 40.7651 12.284C40.7651 11.9 40.7771 11.516 40.8011 11.132C40.8251 10.724 40.8611 10.34 40.9091 9.98C40.9811 9.596 41.0771 9.26 41.1971 8.972C41.3891 8.54 41.6891 8.252 42.0971 8.108C42.5051 7.94 42.9491 7.868 43.4291 7.892C43.9331 7.892 44.3291 7.976 44.6171 8.144C44.9051 8.312 45.1211 8.54 45.2651 8.828C45.4091 9.092 45.4931 9.404 45.5171 9.764C45.5651 10.1 45.5891 10.46 45.5891 10.844C45.8051 10.46 46.0931 10.148 46.4531 9.908C46.8371 9.668 47.2211 9.476 47.6051 9.332C47.9891 9.188 48.3371 9.092 48.6491 9.044C48.9611 8.972 49.1411 8.936 49.1891 8.936C49.7891 8.888 50.3291 8.876 50.8091 8.9C51.3131 8.924 51.8651 9.032 52.4651 9.224C52.8491 9.368 53.2451 9.572 53.6531 9.836C54.0611 10.076 54.4211 10.364 54.7331 10.7C55.0451 11.036 55.2491 11.408 55.3451 11.816C55.4651 12.2 55.4171 12.608 55.2011 13.04C54.8651 13.64 54.4931 13.94 54.0851 13.94C53.6771 13.916 53.2331 13.844 52.7531 13.724C52.4891 13.676 52.1771 13.568 51.8171 13.4C51.4571 13.232 51.1451 13.124 50.8811 13.076C50.0651 12.956 49.3451 13.016 48.7211 13.256C48.0971 13.496 47.5571 13.784 47.1011 14.12C46.5731 14.528 46.1171 14.996 45.7331 15.524V20.708C45.7331 21.356 45.7211 22.028 45.6971 22.724C45.6971 23.42 45.6011 24.056 45.4091 24.632C45.2411 25.184 44.9411 25.64 44.5091 26C44.1011 26.336 43.5011 26.48 42.7091 26.432C42.2771 26.408 41.8931 26.204 41.5571 25.82C41.2211 25.412 41.0171 25.016 40.9451 24.632C40.8971 24.272 40.8611 23.84 40.8371 23.336C40.8131 22.832 40.7891 22.304 40.7651 21.752C40.7651 21.2 40.7651 20.648 40.7651 20.096C40.7651 19.52 40.7651 18.992 40.7651 18.512V13.256ZM85.9122 1.592C86.1282 1.88 86.2602 2.216 86.3082 2.6C86.3082 2.744 86.2962 2.888 86.2722 3.032C86.2722 3.152 86.2602 3.272 86.2362 3.392C86.2122 3.656 86.0562 3.908 85.7682 4.148C85.6002 4.268 85.3842 4.388 85.1202 4.508C84.9762 4.556 84.8202 4.592 84.6522 4.616C84.5082 4.616 84.3402 4.628 84.1482 4.652C84.0042 4.7 83.8482 4.724 83.6802 4.724C83.5122 4.724 83.3442 4.724 83.1762 4.724H81.5562L74.0322 4.76V4.868L73.9962 10.736C74.1882 10.736 74.3922 10.736 74.6082 10.736C74.8482 10.736 75.1362 10.724 75.4722 10.7C76.4322 10.7 77.2842 10.7 78.0282 10.7C78.7962 10.7 79.6362 10.712 80.5482 10.736H80.7642C81.0282 10.736 81.2922 10.748 81.5562 10.772C81.8442 10.772 82.1322 10.772 82.4202 10.772C82.6842 10.796 82.9482 10.832 83.2122 10.88C83.4762 10.904 83.7402 10.964 84.0042 11.06C84.4362 11.204 84.7482 11.432 84.9402 11.744C85.2042 12.056 85.3362 12.38 85.3362 12.716C85.3362 12.86 85.3362 13.004 85.3362 13.148C85.3362 13.268 85.3122 13.4 85.2642 13.544C85.2402 13.736 85.0842 13.976 84.7962 14.264C84.6042 14.432 84.3762 14.54 84.1122 14.588C83.9922 14.636 83.8482 14.684 83.6802 14.732C83.5362 14.756 83.3802 14.78 83.2122 14.804C83.0442 14.828 82.8762 14.852 82.7082 14.876C82.5642 14.876 82.3962 14.876 82.2042 14.876H80.5482L73.9242 14.912L73.8162 23.264V23.552C73.8162 23.672 73.8042 23.792 73.7802 23.912C73.7802 24.008 73.7682 24.116 73.7442 24.236C73.6962 24.356 73.6482 24.488 73.6002 24.632C73.5762 24.752 73.5402 24.872 73.4922 24.992C73.3242 25.328 73.1682 25.556 73.0242 25.676C72.7602 25.868 72.4362 26 72.0522 26.072C71.4042 26.216 70.7922 26.144 70.2162 25.856C70.0962 25.784 69.9762 25.7 69.8562 25.604C69.7602 25.484 69.6762 25.34 69.6042 25.172C69.5562 25.076 69.5322 25.004 69.5322 24.956L69.4242 24.74C69.3522 24.62 69.3042 24.5 69.2802 24.38C69.2562 24.236 69.2322 24.104 69.2082 23.984C69.2082 23.864 69.1962 23.744 69.1722 23.624C69.1722 23.504 69.1602 23.384 69.1362 23.264C69.1122 23.072 69.1122 22.88 69.1362 22.688V22.112L69.1722 19.304L69.2082 14.12C69.2322 13.352 69.2442 12.572 69.2442 11.78C69.2442 10.988 69.2442 10.172 69.2442 9.332C69.2202 8.468 69.2082 7.7 69.2082 7.028C69.2322 6.356 69.2682 5.624 69.3162 4.832V4.652C69.3402 4.388 69.3522 4.148 69.3522 3.932C69.3522 3.692 69.3762 3.452 69.4242 3.212C69.4722 2.684 69.5922 2.216 69.7842 1.808C69.9522 1.4 70.1922 1.112 70.5042 0.943999C70.8642 0.727998 71.2482 0.619998 71.6562 0.619998C71.8482 0.619998 72.0042 0.631998 72.1242 0.655998V0.619998C72.5562 0.619998 72.9042 0.619998 73.1682 0.619998C73.4322 0.619998 73.6842 0.619998 73.9242 0.619998C74.1642 0.619998 74.4282 0.619998 74.7162 0.619998C75.0042 0.595999 75.3882 0.583999 75.8682 0.583999C77.7882 0.559999 79.6842 0.559999 81.5562 0.583999H81.7362C82.0002 0.607999 82.2642 0.619998 82.5282 0.619998C82.8162 0.619998 83.1042 0.631998 83.3922 0.655998C83.6562 0.655998 83.9202 0.691998 84.1842 0.763999C84.4482 0.811998 84.7122 0.883998 84.9762 0.979998C85.3842 1.1 85.6962 1.304 85.9122 1.592ZM99.5913 21.068C99.8793 20.996 100.167 20.948 100.455 20.924C100.767 20.9 101.043 20.936 101.283 21.032C101.547 21.128 101.763 21.296 101.931 21.536C102.099 21.752 102.183 22.064 102.183 22.472C102.183 22.76 102.111 23.036 101.967 23.3C101.823 23.564 101.643 23.804 101.427 24.02C101.211 24.236 100.971 24.428 100.707 24.596C100.443 24.74 100.191 24.86 99.9513 24.956C99.2553 25.268 98.4513 25.508 97.5393 25.676C96.6513 25.844 95.7273 25.904 94.7673 25.856C93.4713 25.808 92.2233 25.556 91.0233 25.1C89.8473 24.62 88.9233 23.84 88.2513 22.76C87.6273 21.704 87.2553 20.528 87.1353 19.232C87.0153 17.936 87.0753 16.712 87.3153 15.56C87.5793 14.168 88.0233 13.04 88.6473 12.176C89.2953 11.288 90.0633 10.58 90.9513 10.052C92.0313 9.428 93.2433 9.104 94.5873 9.08C95.9313 9.056 97.2153 9.32 98.4393 9.872C99.2553 10.232 99.9873 10.724 100.635 11.348C101.283 11.948 101.775 12.68 102.111 13.544C102.207 13.76 102.279 14.024 102.327 14.336C102.399 14.648 102.447 14.984 102.471 15.344C102.495 15.68 102.495 16.016 102.471 16.352C102.447 16.688 102.387 16.988 102.291 17.252C102.147 17.684 101.967 18.02 101.751 18.26C101.535 18.5 101.259 18.68 100.923 18.8C100.587 18.92 100.179 19.004 99.6993 19.052C99.2433 19.076 98.6913 19.1 98.0433 19.124C97.4673 19.148 96.9273 19.16 96.4233 19.16C95.9193 19.16 95.4033 19.16 94.8753 19.16C94.3473 19.136 93.7953 19.124 93.2193 19.124C92.6673 19.1 92.0433 19.076 91.3473 19.052C91.2753 19.532 91.3353 19.952 91.5273 20.312C91.7433 20.648 92.0313 20.936 92.3913 21.176C92.7513 21.392 93.1593 21.56 93.6153 21.68C94.0713 21.8 94.5153 21.872 94.9473 21.896C95.7633 21.944 96.5433 21.884 97.2873 21.716C98.0313 21.524 98.7993 21.308 99.5913 21.068ZM98.0433 14.084C97.5873 13.556 97.1073 13.172 96.6033 12.932C96.2193 12.764 95.8113 12.692 95.3793 12.716C94.9713 12.716 94.5753 12.776 94.1913 12.896C93.4953 13.064 92.9073 13.424 92.4273 13.976C92.3793 14.024 92.2953 14.144 92.1753 14.336C92.0553 14.504 91.9353 14.684 91.8153 14.876C91.7193 15.068 91.6473 15.248 91.5993 15.416C91.5513 15.584 91.5753 15.668 91.6713 15.668H98.7273C98.7033 15.332 98.6433 15.056 98.5473 14.84C98.4513 14.6 98.2833 14.348 98.0433 14.084ZM109.242 10.844C109.962 10.484 110.718 10.232 111.51 10.088C112.302 9.92 113.082 9.884 113.85 9.98C114.642 10.052 115.398 10.256 116.118 10.592C116.838 10.904 117.51 11.36 118.134 11.96C118.758 12.584 119.238 13.268 119.574 14.012C119.91 14.756 120.15 15.584 120.294 16.496C120.39 17.12 120.546 17.696 120.762 18.224C120.978 18.752 121.206 19.28 121.446 19.808C121.71 20.336 121.95 20.864 122.166 21.392C122.406 21.92 122.598 22.472 122.742 23.048C122.862 23.6 122.814 24.14 122.598 24.668C122.406 25.172 121.998 25.484 121.374 25.604C121.014 25.676 120.666 25.652 120.33 25.532C120.018 25.388 119.73 25.196 119.466 24.956C119.202 24.692 118.962 24.416 118.746 24.128C118.554 23.816 118.374 23.528 118.206 23.264C117.654 23.984 117.054 24.548 116.406 24.956C115.758 25.34 114.978 25.592 114.066 25.712C113.298 25.808 112.566 25.832 111.87 25.784C111.174 25.736 110.43 25.604 109.638 25.388C108.606 25.124 107.754 24.668 107.082 24.02C106.434 23.348 105.93 22.58 105.57 21.716C105.234 20.828 105.054 19.88 105.03 18.872C105.006 17.864 105.126 16.868 105.39 15.884C105.726 14.588 106.23 13.532 106.902 12.716C107.574 11.9 108.354 11.276 109.242 10.844ZM110.142 15.056C109.806 15.392 109.542 15.788 109.35 16.244C109.158 16.7 109.038 17.18 108.99 17.684C108.966 18.188 109.014 18.692 109.134 19.196C109.254 19.7 109.446 20.144 109.71 20.528C109.95 20.864 110.358 21.152 110.934 21.392C111.51 21.608 112.11 21.74 112.734 21.788C113.454 21.836 114.078 21.644 114.606 21.212C115.158 20.78 115.566 20.24 115.83 19.592C116.118 18.92 116.25 18.212 116.226 17.468C116.202 16.7 115.998 16.004 115.614 15.38C115.326 14.924 114.942 14.588 114.462 14.372C114.006 14.156 113.514 14.048 112.986 14.048C112.458 14.024 111.93 14.108 111.402 14.3C110.898 14.468 110.478 14.72 110.142 15.056ZM136.855 10.124C137.047 10.58 137.059 11.084 136.891 11.636C136.747 12.188 136.471 12.548 136.063 12.716C135.847 12.812 135.559 12.896 135.199 12.968C134.839 13.016 134.443 13.064 134.011 13.112C133.603 13.16 133.195 13.196 132.787 13.22C132.379 13.244 132.031 13.256 131.743 13.256C131.767 13.976 131.791 14.72 131.815 15.488C131.839 16.232 131.863 16.964 131.887 17.684C131.911 18.404 131.923 19.1 131.923 19.772C131.923 20.42 131.911 21.008 131.887 21.536C131.887 21.896 131.887 22.316 131.887 22.796C131.887 23.252 131.851 23.696 131.779 24.128C131.731 24.56 131.647 24.944 131.527 25.28C131.407 25.592 131.227 25.796 130.987 25.892C130.243 26.204 129.559 26.288 128.935 26.144C128.335 26.024 127.903 25.772 127.639 25.388C127.447 25.076 127.303 24.716 127.207 24.308C127.111 23.876 127.039 23.444 126.991 23.012C126.967 22.556 126.955 22.124 126.955 21.716C126.979 21.284 126.991 20.912 126.991 20.6C127.015 19.592 127.027 18.452 127.027 17.18C127.051 15.884 127.063 14.588 127.063 13.292H126.523C126.235 13.292 125.863 13.292 125.407 13.292C124.975 13.268 124.531 13.232 124.075 13.184C123.643 13.112 123.235 13.028 122.851 12.932C122.467 12.812 122.191 12.644 122.023 12.428C121.759 12.116 121.591 11.78 121.519 11.42C121.471 11.06 121.495 10.724 121.591 10.412C121.711 10.076 121.891 9.788 122.131 9.548C122.371 9.284 122.647 9.116 122.959 9.044C123.391 8.924 124.003 8.864 124.795 8.864C125.587 8.84 126.331 8.84 127.027 8.864C127.003 8.624 126.991 8.396 126.991 8.18C126.991 7.94 126.979 7.712 126.955 7.496C126.931 7.208 126.919 6.848 126.919 6.416C126.919 5.96 126.943 5.516 126.991 5.084C127.063 4.628 127.171 4.208 127.315 3.824C127.459 3.416 127.663 3.104 127.927 2.888C128.287 2.6 128.647 2.444 129.007 2.42C129.391 2.372 129.739 2.42 130.051 2.564C130.387 2.708 130.663 2.924 130.879 3.212C131.119 3.476 131.287 3.776 131.383 4.112C131.455 4.4 131.515 4.748 131.563 5.156C131.611 5.54 131.635 5.948 131.635 6.38C131.659 6.812 131.671 7.244 131.671 7.676C131.671 8.108 131.671 8.504 131.671 8.864H132.031C132.391 8.864 132.811 8.852 133.291 8.828C133.771 8.804 134.239 8.816 134.695 8.864C135.175 8.912 135.607 9.032 135.991 9.224C136.375 9.392 136.663 9.692 136.855 10.124ZM154.701 17.432C154.653 18.224 154.605 19.028 154.557 19.844C154.509 20.636 154.377 21.404 154.161 22.148C153.969 22.892 153.657 23.564 153.225 24.164C152.817 24.764 152.229 25.244 151.461 25.604C150.789 25.94 150.069 26.168 149.301 26.288C148.533 26.432 147.765 26.492 146.997 26.468C146.229 26.444 145.485 26.324 144.765 26.108C144.045 25.916 143.397 25.64 142.821 25.28C142.245 24.92 141.777 24.452 141.417 23.876C141.057 23.3 140.769 22.676 140.553 22.004C140.361 21.332 140.229 20.636 140.157 19.916C140.085 19.196 140.037 18.524 140.013 17.9C139.917 16.244 139.917 14.612 140.013 13.004C140.013 12.692 140.013 12.344 140.013 11.96C140.013 11.552 140.037 11.156 140.085 10.772C140.157 10.388 140.265 10.04 140.409 9.728C140.553 9.392 140.793 9.14 141.129 8.972C141.849 8.588 142.509 8.564 143.109 8.9C143.733 9.236 144.105 9.932 144.225 10.988C144.297 11.54 144.321 12.152 144.297 12.824C144.297 13.496 144.321 14.108 144.369 14.66C144.393 15.476 144.417 16.364 144.441 17.324C144.465 18.26 144.597 19.1 144.837 19.844C145.101 20.588 145.521 21.152 146.097 21.536C146.697 21.896 147.585 21.908 148.761 21.572C149.313 21.404 149.673 20.984 149.841 20.312C150.033 19.64 150.129 18.644 150.129 17.324C150.129 16.748 150.117 16.112 150.093 15.416C150.069 14.72 150.057 14.036 150.057 13.364C150.057 12.668 150.069 12.032 150.093 11.456C150.141 10.856 150.213 10.4 150.309 10.088C150.429 9.656 150.681 9.332 151.065 9.116C151.449 8.9 151.857 8.792 152.289 8.792C152.721 8.768 153.129 8.852 153.513 9.044C153.897 9.236 154.161 9.548 154.305 9.98C154.449 10.364 154.545 10.856 154.593 11.456C154.665 12.032 154.713 12.668 154.737 13.364C154.761 14.036 154.761 14.732 154.737 15.452C154.737 16.148 154.725 16.808 154.701 17.432ZM157.695 13.256C157.695 12.968 157.695 12.644 157.695 12.284C157.695 11.9 157.707 11.516 157.731 11.132C157.755 10.724 157.791 10.34 157.839 9.98C157.911 9.596 158.007 9.26 158.127 8.972C158.319 8.54 158.619 8.252 159.027 8.108C159.435 7.94 159.879 7.868 160.359 7.892C160.863 7.892 161.259 7.976 161.547 8.144C161.835 8.312 162.051 8.54 162.195 8.828C162.339 9.092 162.423 9.404 162.447 9.764C162.495 10.1 162.519 10.46 162.519 10.844C162.735 10.46 163.023 10.148 163.383 9.908C163.767 9.668 164.151 9.476 164.535 9.332C164.919 9.188 165.267 9.092 165.579 9.044C165.891 8.972 166.071 8.936 166.119 8.936C166.719 8.888 167.259 8.876 167.739 8.9C168.243 8.924 168.795 9.032 169.395 9.224C169.779 9.368 170.175 9.572 170.583 9.836C170.991 10.076 171.351 10.364 171.663 10.7C171.975 11.036 172.179 11.408 172.275 11.816C172.395 12.2 172.347 12.608 172.131 13.04C171.795 13.64 171.423 13.94 171.015 13.94C170.607 13.916 170.163 13.844 169.683 13.724C169.419 13.676 169.107 13.568 168.747 13.4C168.387 13.232 168.075 13.124 167.811 13.076C166.995 12.956 166.275 13.016 165.651 13.256C165.027 13.496 164.487 13.784 164.031 14.12C163.503 14.528 163.047 14.996 162.663 15.524V20.708C162.663 21.356 162.651 22.028 162.627 22.724C162.627 23.42 162.531 24.056 162.339 24.632C162.171 25.184 161.871 25.64 161.439 26C161.031 26.336 160.431 26.48 159.639 26.432C159.207 26.408 158.823 26.204 158.487 25.82C158.151 25.412 157.947 25.016 157.875 24.632C157.827 24.272 157.791 23.84 157.767 23.336C157.743 22.832 157.719 22.304 157.695 21.752C157.695 21.2 157.695 20.648 157.695 20.096C157.695 19.52 157.695 18.992 157.695 18.512V13.256ZM185.548 21.068C185.836 20.996 186.124 20.948 186.412 20.924C186.724 20.9 187 20.936 187.24 21.032C187.504 21.128 187.72 21.296 187.888 21.536C188.056 21.752 188.14 22.064 188.14 22.472C188.14 22.76 188.068 23.036 187.924 23.3C187.78 23.564 187.6 23.804 187.384 24.02C187.168 24.236 186.928 24.428 186.664 24.596C186.4 24.74 186.148 24.86 185.908 24.956C185.212 25.268 184.408 25.508 183.496 25.676C182.608 25.844 181.684 25.904 180.724 25.856C179.428 25.808 178.18 25.556 176.98 25.1C175.804 24.62 174.88 23.84 174.208 22.76C173.584 21.704 173.212 20.528 173.092 19.232C172.972 17.936 173.032 16.712 173.272 15.56C173.536 14.168 173.98 13.04 174.604 12.176C175.252 11.288 176.02 10.58 176.908 10.052C177.988 9.428 179.2 9.104 180.544 9.08C181.888 9.056 183.172 9.32 184.396 9.872C185.212 10.232 185.944 10.724 186.592 11.348C187.24 11.948 187.732 12.68 188.068 13.544C188.164 13.76 188.236 14.024 188.284 14.336C188.356 14.648 188.404 14.984 188.428 15.344C188.452 15.68 188.452 16.016 188.428 16.352C188.404 16.688 188.344 16.988 188.248 17.252C188.104 17.684 187.924 18.02 187.708 18.26C187.492 18.5 187.216 18.68 186.88 18.8C186.544 18.92 186.136 19.004 185.656 19.052C185.2 19.076 184.648 19.1 184 19.124C183.424 19.148 182.884 19.16 182.38 19.16C181.876 19.16 181.36 19.16 180.832 19.16C180.304 19.136 179.752 19.124 179.176 19.124C178.624 19.1 178 19.076 177.304 19.052C177.232 19.532 177.292 19.952 177.484 20.312C177.7 20.648 177.988 20.936 178.348 21.176C178.708 21.392 179.116 21.56 179.572 21.68C180.028 21.8 180.472 21.872 180.904 21.896C181.72 21.944 182.5 21.884 183.244 21.716C183.988 21.524 184.756 21.308 185.548 21.068ZM184 14.084C183.544 13.556 183.064 13.172 182.56 12.932C182.176 12.764 181.768 12.692 181.336 12.716C180.928 12.716 180.532 12.776 180.148 12.896C179.452 13.064 178.864 13.424 178.384 13.976C178.336 14.024 178.252 14.144 178.132 14.336C178.012 14.504 177.892 14.684 177.772 14.876C177.676 15.068 177.604 15.248 177.556 15.416C177.508 15.584 177.532 15.668 177.628 15.668H184.684C184.66 15.332 184.6 15.056 184.504 14.84C184.408 14.6 184.24 14.348 184 14.084ZM199.942 19.664C199.486 19.376 198.97 19.148 198.394 18.98C197.842 18.812 197.266 18.656 196.666 18.512C196.09 18.368 195.526 18.212 194.974 18.044C194.422 17.852 193.918 17.588 193.462 17.252C192.478 16.508 191.902 15.596 191.734 14.516C191.59 13.412 191.83 12.308 192.454 11.204C192.79 10.628 193.234 10.16 193.786 9.8C194.338 9.416 194.938 9.128 195.586 8.936C196.258 8.72 196.942 8.6 197.638 8.576C198.334 8.552 198.994 8.588 199.618 8.684C200.026 8.756 200.458 8.864 200.914 9.008C201.37 9.128 201.79 9.296 202.174 9.512C202.582 9.728 202.942 10.004 203.254 10.34C203.59 10.652 203.83 11.048 203.974 11.528C204.07 11.84 204.082 12.14 204.01 12.428C203.962 12.716 203.842 12.956 203.65 13.148C203.482 13.34 203.254 13.484 202.966 13.58C202.702 13.676 202.414 13.7 202.102 13.652C201.742 13.58 201.406 13.472 201.094 13.328C200.782 13.184 200.47 13.028 200.158 12.86C199.846 12.692 199.522 12.548 199.186 12.428C198.874 12.308 198.538 12.248 198.178 12.248C197.626 12.224 197.17 12.32 196.81 12.536C196.45 12.752 196.198 13.016 196.054 13.328C195.934 13.64 195.946 13.976 196.09 14.336C196.258 14.696 196.594 15.008 197.098 15.272C197.554 15.512 198.058 15.704 198.61 15.848C199.162 15.992 199.702 16.136 200.23 16.28C200.782 16.424 201.31 16.592 201.814 16.784C202.342 16.976 202.81 17.24 203.218 17.576C204.01 18.224 204.49 18.98 204.658 19.844C204.85 20.708 204.802 21.56 204.514 22.4C204.226 23.24 203.722 23.984 203.002 24.632C202.306 25.28 201.478 25.712 200.518 25.928C199.822 26.072 199.066 26.144 198.25 26.144C197.458 26.144 196.666 26.06 195.874 25.892C195.106 25.724 194.362 25.46 193.642 25.1C192.946 24.74 192.358 24.284 191.878 23.732C191.542 23.348 191.362 22.916 191.338 22.436C191.338 21.932 191.434 21.5 191.626 21.14C191.842 20.756 192.142 20.492 192.526 20.348C192.91 20.204 193.342 20.288 193.822 20.6C194.206 20.864 194.662 21.128 195.19 21.392C195.718 21.632 196.246 21.824 196.774 21.968C197.302 22.112 197.806 22.184 198.286 22.184C198.79 22.184 199.222 22.076 199.582 21.86C200.11 21.524 200.386 21.14 200.41 20.708C200.434 20.252 200.278 19.904 199.942 19.664Z" fill="#3D408A"/>
</svg>
