<svg width="288" height="67" viewBox="0 0 288 67" fill="none" xmlns="http://www.w3.org/2000/svg">
<path d="M100.475 1.968C100.539 2.272 100.539 2.592 100.475 2.928C100.443 3.088 100.411 3.248 100.379 3.408C100.363 3.552 100.339 3.704 100.307 3.864L100.283 3.96C100.059 4.952 99.8029 6 99.5149 7.104C99.2429 8.192 98.9949 9.224 98.7709 10.2C98.5789 11 98.3789 11.88 98.1709 12.84C97.9629 13.8 97.7469 14.68 97.5229 15.48C97.4429 15.752 97.3549 16.024 97.2589 16.296C97.1789 16.568 97.0749 16.84 96.9469 17.112C96.8349 17.352 96.6989 17.568 96.5389 17.76C96.3949 17.936 96.2269 18.064 96.0349 18.144C95.8429 18.24 95.6349 18.272 95.4109 18.24C95.2029 18.224 94.9709 18.128 94.7149 17.952C94.3309 17.68 94.0429 17.304 93.8509 16.824C93.6749 16.344 93.4909 15.904 93.2989 15.504C93.2349 15.392 93.1389 15.144 93.0109 14.76C92.8829 14.376 92.7469 13.96 92.6029 13.512C92.4589 13.048 92.3149 12.608 92.1709 12.192C92.0429 11.76 91.9309 11.44 91.8349 11.232C91.6909 11.584 91.5469 11.984 91.4029 12.432C91.2589 12.88 91.1229 13.32 90.9949 13.752C90.8669 14.184 90.7469 14.576 90.6349 14.928C90.5389 15.264 90.4669 15.512 90.4189 15.672C90.2909 15.992 90.1469 16.344 89.9869 16.728C89.8429 17.112 89.6589 17.44 89.4349 17.712C89.2269 17.984 88.9709 18.16 88.6669 18.24C88.3629 18.336 88.0029 18.248 87.5869 17.976C87.2669 17.784 87.0429 17.512 86.9149 17.16C86.8349 16.936 86.7549 16.72 86.6749 16.512C86.5949 16.304 86.5309 16.088 86.4829 15.864L86.0029 14.064L85.0189 10.2C84.8909 9.704 84.7629 9.2 84.6349 8.688C84.5229 8.16 84.3869 7.616 84.2269 7.056C84.1469 6.784 84.0749 6.52 84.0109 6.264C83.9629 5.992 83.9069 5.704 83.8429 5.4C83.7949 5.08 83.7309 4.72 83.6509 4.32C83.5869 3.92 83.5069 3.456 83.4109 2.928C83.3789 2.752 83.3549 2.592 83.3389 2.448C83.3389 2.288 83.3549 2.128 83.3869 1.968C83.4189 1.728 83.5309 1.52 83.7229 1.344C83.8029 1.264 83.8989 1.2 84.0109 1.152C84.1229 1.104 84.2429 1.064 84.3709 1.032C84.5629 0.967999 84.7629 0.935999 84.9709 0.935999C85.1629 0.935999 85.3629 1 85.5709 1.128C85.7149 1.208 85.8269 1.312 85.9069 1.44L86.1949 1.944C86.2269 2.056 86.2589 2.16 86.2909 2.256C86.3229 2.336 86.3549 2.424 86.3869 2.52C86.4189 2.632 86.4429 2.736 86.4589 2.832C86.4749 2.912 86.4909 2.992 86.5069 3.072C86.6509 3.904 86.8269 4.712 87.0349 5.496C87.2429 6.28 87.4349 7.032 87.6109 7.752C87.6749 8.04 87.7549 8.4 87.8509 8.832C87.9469 9.248 88.0429 9.688 88.1389 10.152C88.2349 10.6 88.3309 11.032 88.4269 11.448C88.5229 11.864 88.6189 12.192 88.7149 12.432C88.9229 11.712 89.1309 10.992 89.3389 10.272C89.5629 9.552 89.8029 8.824 90.0589 8.088C90.1869 7.704 90.3149 7.36 90.4429 7.056C90.5869 6.736 90.7469 6.472 90.9229 6.264C91.0989 6.056 91.2989 5.92 91.5229 5.856C91.7469 5.792 92.0109 5.816 92.3149 5.928C92.5869 6.04 92.8269 6.28 93.0349 6.648C93.2429 7.016 93.4269 7.392 93.5869 7.776C93.7309 8.128 93.8669 8.504 93.9949 8.904C94.1389 9.288 94.2749 9.672 94.4029 10.056C94.5469 10.424 94.6829 10.776 94.8109 11.112C94.9389 11.448 95.0669 11.736 95.1949 11.976C95.2429 11.8 95.2989 11.576 95.3629 11.304C95.4269 11.032 95.4909 10.744 95.5549 10.44C95.6349 10.12 95.7069 9.808 95.7709 9.504C95.8349 9.2 95.8989 8.92 95.9629 8.664C96.1709 7.8 96.3869 6.936 96.6109 6.072C96.8349 5.192 97.0509 4.328 97.2589 3.48L97.3789 3.072C97.4109 2.992 97.4269 2.912 97.4269 2.832C97.4429 2.736 97.4669 2.632 97.4989 2.52C97.5309 2.424 97.5629 2.336 97.5949 2.256C97.6269 2.16 97.6589 2.056 97.6909 1.944C97.7229 1.864 97.7549 1.784 97.7869 1.704C97.8349 1.608 97.8909 1.52 97.9549 1.44C98.0029 1.36 98.0589 1.296 98.1229 1.248C98.1869 1.2 98.2509 1.16 98.3149 1.128C98.5389 1 98.7309 0.935999 98.8909 0.935999C99.0989 0.935999 99.2989 0.967999 99.4909 1.032C99.7469 1.08 99.9789 1.184 100.187 1.344C100.347 1.504 100.443 1.712 100.475 1.968ZM109.737 14.712C109.929 14.664 110.121 14.632 110.313 14.616C110.521 14.6 110.705 14.624 110.865 14.688C111.041 14.752 111.185 14.864 111.297 15.024C111.409 15.168 111.465 15.376 111.465 15.648C111.465 15.84 111.417 16.024 111.321 16.2C111.225 16.376 111.105 16.536 110.961 16.68C110.817 16.824 110.657 16.952 110.481 17.064C110.305 17.16 110.137 17.24 109.977 17.304C109.513 17.512 108.977 17.672 108.369 17.784C107.777 17.896 107.161 17.936 106.521 17.904C105.657 17.872 104.825 17.704 104.025 17.4C103.241 17.08 102.625 16.56 102.177 15.84C101.761 15.136 101.513 14.352 101.433 13.488C101.353 12.624 101.393 11.808 101.553 11.04C101.729 10.112 102.025 9.36 102.441 8.784C102.873 8.192 103.385 7.72 103.977 7.368C104.697 6.952 105.505 6.736 106.401 6.72C107.297 6.704 108.153 6.88 108.969 7.248C109.513 7.488 110.001 7.816 110.433 8.232C110.865 8.632 111.193 9.12 111.417 9.696C111.481 9.84 111.529 10.016 111.561 10.224C111.609 10.432 111.641 10.656 111.657 10.896C111.673 11.12 111.673 11.344 111.657 11.568C111.641 11.792 111.601 11.992 111.537 12.168C111.441 12.456 111.321 12.68 111.177 12.84C111.033 13 110.849 13.12 110.625 13.2C110.401 13.28 110.129 13.336 109.809 13.368C109.505 13.384 109.137 13.4 108.705 13.416C108.321 13.432 107.961 13.44 107.625 13.44C107.289 13.44 106.945 13.44 106.593 13.44C106.241 13.424 105.873 13.416 105.489 13.416C105.121 13.4 104.705 13.384 104.241 13.368C104.193 13.688 104.233 13.968 104.361 14.208C104.505 14.432 104.697 14.624 104.937 14.784C105.177 14.928 105.449 15.04 105.753 15.12C106.057 15.2 106.353 15.248 106.641 15.264C107.185 15.296 107.705 15.256 108.201 15.144C108.697 15.016 109.209 14.872 109.737 14.712ZM108.705 10.056C108.401 9.704 108.081 9.448 107.745 9.288C107.489 9.176 107.217 9.128 106.929 9.144C106.657 9.144 106.393 9.184 106.137 9.264C105.673 9.376 105.281 9.616 104.961 9.984C104.929 10.016 104.873 10.096 104.793 10.224C104.713 10.336 104.633 10.456 104.553 10.584C104.489 10.712 104.441 10.832 104.409 10.944C104.377 11.056 104.393 11.112 104.457 11.112H109.161C109.145 10.888 109.105 10.704 109.041 10.56C108.977 10.4 108.865 10.232 108.705 10.056ZM117.304 16.08C117.288 16.16 117.272 16.24 117.256 16.32C117.256 16.384 117.256 16.456 117.256 16.536L117.112 17.04C117.08 17.104 117.056 17.144 117.04 17.16L116.968 17.304C116.888 17.48 116.744 17.624 116.536 17.736C116.152 17.928 115.744 17.976 115.312 17.88C115.04 17.848 114.824 17.768 114.664 17.64C114.504 17.528 114.392 17.392 114.328 17.232C114.264 17.072 114.216 16.912 114.184 16.752C114.136 16.592 114.112 16.448 114.112 16.32V2.88C114.112 2.768 114.112 2.672 114.112 2.592C114.128 2.496 114.144 2.408 114.16 2.328C114.176 2.216 114.192 2.12 114.208 2.04C114.24 1.96 114.272 1.872 114.304 1.776C114.352 1.616 114.44 1.488 114.568 1.392C114.76 1.248 114.944 1.168 115.12 1.152C115.232 1.12 115.336 1.104 115.432 1.104C115.528 1.088 115.64 1.08 115.768 1.08C115.992 1.08 116.248 1.144 116.536 1.272C116.76 1.4 116.92 1.576 117.016 1.8C117.176 2.12 117.256 2.416 117.256 2.688C117.272 2.848 117.28 3.088 117.28 3.408C117.296 3.728 117.304 3.968 117.304 4.128V4.224C117.336 4.736 117.352 5.232 117.352 5.712C117.352 6.176 117.344 6.688 117.328 7.248C117.328 7.792 117.32 8.32 117.304 8.832C117.304 9.328 117.304 9.824 117.304 10.32V15.36C117.304 15.424 117.304 15.488 117.304 15.552C117.32 15.6 117.328 15.656 117.328 15.72C117.328 15.88 117.32 16 117.304 16.08ZM128.197 8.76C128.325 8.984 128.389 9.224 128.389 9.48C128.405 9.736 128.349 9.976 128.221 10.2C128.077 10.488 127.869 10.688 127.597 10.8C127.341 10.896 127.053 10.904 126.733 10.824C126.589 10.792 126.461 10.736 126.349 10.656C126.237 10.576 126.117 10.496 125.989 10.416C125.877 10.32 125.741 10.232 125.581 10.152C125.437 10.072 125.245 10.016 125.005 9.984C124.765 9.952 124.501 9.952 124.213 9.984C123.941 10.016 123.693 10.08 123.469 10.176C123.117 10.352 122.837 10.624 122.629 10.992C122.421 11.344 122.285 11.728 122.221 12.144C122.157 12.544 122.165 12.952 122.245 13.368C122.341 13.784 122.517 14.136 122.773 14.424C122.965 14.648 123.213 14.832 123.517 14.976C123.837 15.12 124.141 15.208 124.429 15.24C124.701 15.272 124.973 15.272 125.245 15.24C125.517 15.192 125.781 15.128 126.037 15.048C126.229 14.968 126.445 14.864 126.685 14.736C126.925 14.592 127.157 14.504 127.381 14.472C127.669 14.472 127.893 14.552 128.053 14.712C128.213 14.856 128.325 15.04 128.389 15.264C128.453 15.472 128.461 15.696 128.413 15.936C128.381 16.176 128.293 16.384 128.149 16.56C127.957 16.8 127.685 17.032 127.333 17.256C126.981 17.464 126.645 17.616 126.325 17.712C125.941 17.84 125.509 17.912 125.029 17.928C124.565 17.944 124.125 17.928 123.709 17.88C123.517 17.848 123.317 17.808 123.109 17.76C122.901 17.712 122.701 17.656 122.509 17.592C121.805 17.336 121.213 16.976 120.733 16.512C120.269 16.032 119.909 15.496 119.653 14.904C119.413 14.312 119.277 13.68 119.245 13.008C119.213 12.336 119.293 11.672 119.485 11.016C119.661 10.392 119.877 9.864 120.133 9.432C120.405 9 120.717 8.648 121.069 8.376C121.437 8.088 121.845 7.864 122.293 7.704C122.741 7.528 123.237 7.376 123.781 7.248C124.341 7.136 124.933 7.136 125.557 7.248C126.181 7.36 126.741 7.568 127.237 7.872C127.621 8.08 127.941 8.376 128.197 8.76ZM133.451 7.152C133.979 6.896 134.531 6.712 135.107 6.6C135.683 6.488 136.251 6.464 136.811 6.528C137.387 6.592 137.939 6.744 138.467 6.984C139.011 7.224 139.507 7.56 139.955 7.992C140.323 8.36 140.643 8.808 140.915 9.336C141.187 9.848 141.387 10.352 141.515 10.848C141.787 11.728 141.827 12.616 141.635 13.512C141.443 14.408 141.115 15.24 140.651 16.008C140.427 16.36 140.147 16.68 139.811 16.968C139.491 17.24 139.147 17.464 138.779 17.64C138.299 17.864 137.779 18.016 137.219 18.096C136.659 18.192 136.115 18.216 135.587 18.168C134.627 18.12 133.779 17.88 133.043 17.448C132.323 17.016 131.739 16.464 131.291 15.792C130.859 15.12 130.571 14.36 130.427 13.512C130.299 12.648 130.355 11.768 130.595 10.872C130.851 9.912 131.219 9.136 131.699 8.544C132.195 7.936 132.779 7.472 133.451 7.152ZM134.171 10.368C133.931 10.592 133.747 10.872 133.619 11.208C133.491 11.544 133.411 11.896 133.379 12.264C133.347 12.616 133.371 12.976 133.451 13.344C133.547 13.696 133.691 14.016 133.883 14.304C134.043 14.544 134.331 14.744 134.747 14.904C135.163 15.064 135.595 15.16 136.043 15.192C136.555 15.224 137.003 15.088 137.387 14.784C137.771 14.464 138.059 14.072 138.251 13.608C138.459 13.144 138.555 12.64 138.539 12.096C138.523 11.552 138.379 11.056 138.107 10.608C137.915 10.288 137.643 10.056 137.291 9.912C136.955 9.752 136.595 9.672 136.211 9.672C135.843 9.656 135.475 9.712 135.107 9.84C134.739 9.952 134.427 10.128 134.171 10.368ZM156.675 12.408C156.707 12.92 156.723 13.408 156.723 13.872C156.723 14.32 156.707 14.8 156.675 15.312C156.675 15.504 156.675 15.72 156.675 15.96C156.675 16.2 156.659 16.432 156.627 16.656C156.595 16.88 156.539 17.088 156.459 17.28C156.379 17.472 156.259 17.624 156.099 17.736C155.907 17.864 155.691 17.952 155.451 18C155.211 18.032 154.987 18.016 154.779 17.952C154.571 17.888 154.387 17.768 154.227 17.592C154.083 17.416 154.003 17.168 153.987 16.848C153.939 16.112 153.915 15.376 153.915 14.64C153.915 14.272 153.907 13.92 153.891 13.584C153.891 13.248 153.899 12.776 153.915 12.168C153.915 11.864 153.891 11.52 153.843 11.136C153.795 10.736 153.675 10.456 153.483 10.296C153.339 10.168 153.179 10.096 153.003 10.08C152.827 10.048 152.651 10.064 152.475 10.128C152.315 10.192 152.171 10.312 152.043 10.488C151.915 10.648 151.827 10.856 151.779 11.112C151.779 11.32 151.771 11.536 151.755 11.76C151.755 11.968 151.763 12.168 151.779 12.36C151.795 12.872 151.803 13.36 151.803 13.824C151.803 14.272 151.795 14.752 151.779 15.264C151.763 15.472 151.755 15.696 151.755 15.936C151.771 16.176 151.771 16.416 151.755 16.656C151.739 16.88 151.691 17.088 151.611 17.28C151.547 17.472 151.427 17.624 151.251 17.736C151.059 17.864 150.851 17.944 150.627 17.976C150.419 17.992 150.219 17.96 150.027 17.88C149.851 17.784 149.691 17.64 149.547 17.448C149.419 17.256 149.347 17 149.331 16.68C149.299 16.312 149.275 15.976 149.259 15.672C149.259 15.352 149.259 15.016 149.259 14.664C149.259 14.296 149.267 13.92 149.283 13.536C149.299 13.136 149.291 12.752 149.259 12.384C149.259 12.272 149.251 12.144 149.235 12C149.235 11.84 149.227 11.68 149.211 11.52C149.211 11.36 149.195 11.208 149.163 11.064C149.147 10.904 149.115 10.776 149.067 10.68C148.939 10.456 148.707 10.312 148.371 10.248C148.051 10.184 147.779 10.208 147.555 10.32C147.331 10.432 147.163 10.576 147.051 10.752C146.939 10.928 146.859 11.12 146.811 11.328C146.763 11.536 146.739 11.76 146.739 12C146.739 12.224 146.739 12.44 146.739 12.648C146.739 13.688 146.739 14.592 146.739 15.36C146.755 16.112 146.675 16.72 146.499 17.184C146.419 17.424 146.251 17.608 145.995 17.736C145.755 17.864 145.491 17.928 145.203 17.928C144.931 17.928 144.675 17.864 144.435 17.736C144.195 17.608 144.035 17.408 143.955 17.136C143.907 16.96 143.859 16.712 143.811 16.392C143.779 16.056 143.755 15.688 143.739 15.288C143.723 14.888 143.715 14.488 143.715 14.088C143.715 13.672 143.715 13.296 143.715 12.96V9.504C143.699 9.136 143.691 8.736 143.691 8.304C143.691 7.872 143.755 7.48 143.883 7.128C143.995 6.824 144.171 6.632 144.411 6.552C144.651 6.456 144.899 6.416 145.155 6.432C145.443 6.432 145.667 6.512 145.827 6.672C146.003 6.816 146.131 7 146.211 7.224C146.291 7.432 146.339 7.672 146.355 7.944C146.371 8.2 146.387 8.448 146.403 8.688C146.579 8.288 146.787 7.96 147.027 7.704C147.283 7.432 147.643 7.256 148.107 7.176C149.291 6.952 150.235 7.256 150.939 8.088C151.259 7.768 151.667 7.504 152.163 7.296C152.547 7.152 152.939 7.088 153.339 7.104C153.739 7.104 154.115 7.176 154.467 7.32C154.835 7.464 155.163 7.672 155.451 7.944C155.755 8.216 155.995 8.544 156.171 8.928C156.411 9.44 156.547 10.008 156.579 10.632C156.611 11.256 156.643 11.848 156.675 12.408ZM166.948 14.712C167.14 14.664 167.332 14.632 167.524 14.616C167.732 14.6 167.916 14.624 168.076 14.688C168.252 14.752 168.396 14.864 168.508 15.024C168.62 15.168 168.676 15.376 168.676 15.648C168.676 15.84 168.628 16.024 168.532 16.2C168.436 16.376 168.316 16.536 168.172 16.68C168.028 16.824 167.868 16.952 167.692 17.064C167.516 17.16 167.348 17.24 167.188 17.304C166.724 17.512 166.188 17.672 165.58 17.784C164.988 17.896 164.372 17.936 163.732 17.904C162.868 17.872 162.036 17.704 161.236 17.4C160.452 17.08 159.836 16.56 159.388 15.84C158.972 15.136 158.724 14.352 158.644 13.488C158.564 12.624 158.604 11.808 158.764 11.04C158.94 10.112 159.236 9.36 159.652 8.784C160.084 8.192 160.596 7.72 161.188 7.368C161.908 6.952 162.716 6.736 163.612 6.72C164.508 6.704 165.364 6.88 166.18 7.248C166.724 7.488 167.212 7.816 167.644 8.232C168.076 8.632 168.404 9.12 168.628 9.696C168.692 9.84 168.74 10.016 168.772 10.224C168.82 10.432 168.852 10.656 168.868 10.896C168.884 11.12 168.884 11.344 168.868 11.568C168.852 11.792 168.812 11.992 168.748 12.168C168.652 12.456 168.532 12.68 168.388 12.84C168.244 13 168.06 13.12 167.836 13.2C167.612 13.28 167.34 13.336 167.02 13.368C166.716 13.384 166.348 13.4 165.916 13.416C165.532 13.432 165.172 13.44 164.836 13.44C164.5 13.44 164.156 13.44 163.804 13.44C163.452 13.424 163.084 13.416 162.7 13.416C162.332 13.4 161.916 13.384 161.452 13.368C161.404 13.688 161.444 13.968 161.572 14.208C161.716 14.432 161.908 14.624 162.148 14.784C162.388 14.928 162.66 15.04 162.964 15.12C163.268 15.2 163.564 15.248 163.852 15.264C164.396 15.296 164.916 15.256 165.412 15.144C165.908 15.016 166.42 14.872 166.948 14.712ZM165.916 10.056C165.612 9.704 165.292 9.448 164.956 9.288C164.7 9.176 164.428 9.128 164.14 9.144C163.868 9.144 163.604 9.184 163.348 9.264C162.884 9.376 162.492 9.616 162.172 9.984C162.14 10.016 162.084 10.096 162.004 10.224C161.924 10.336 161.844 10.456 161.764 10.584C161.7 10.712 161.652 10.832 161.62 10.944C161.588 11.056 161.604 11.112 161.668 11.112H166.372C166.356 10.888 166.316 10.704 166.252 10.56C166.188 10.4 166.076 10.232 165.916 10.056ZM187.29 7.416C187.418 7.72 187.426 8.056 187.314 8.424C187.218 8.792 187.034 9.032 186.762 9.144C186.618 9.208 186.426 9.264 186.186 9.312C185.946 9.344 185.682 9.376 185.394 9.408C185.122 9.44 184.85 9.464 184.578 9.48C184.306 9.496 184.074 9.504 183.882 9.504C183.898 9.984 183.914 10.48 183.93 10.992C183.946 11.488 183.962 11.976 183.978 12.456C183.994 12.936 184.002 13.4 184.002 13.848C184.002 14.28 183.994 14.672 183.978 15.024C183.978 15.264 183.978 15.544 183.978 15.864C183.978 16.168 183.954 16.464 183.906 16.752C183.874 17.04 183.818 17.296 183.738 17.52C183.658 17.728 183.538 17.864 183.378 17.928C182.882 18.136 182.426 18.192 182.01 18.096C181.61 18.016 181.322 17.848 181.146 17.592C181.018 17.384 180.922 17.144 180.858 16.872C180.794 16.584 180.746 16.296 180.714 16.008C180.698 15.704 180.69 15.416 180.69 15.144C180.706 14.856 180.714 14.608 180.714 14.4C180.73 13.728 180.738 12.968 180.738 12.12C180.754 11.256 180.762 10.392 180.762 9.528H180.402C180.21 9.528 179.962 9.528 179.658 9.528C179.37 9.512 179.074 9.488 178.77 9.456C178.482 9.408 178.21 9.352 177.954 9.288C177.698 9.208 177.514 9.096 177.402 8.952C177.226 8.744 177.114 8.52 177.066 8.28C177.034 8.04 177.05 7.816 177.114 7.608C177.194 7.384 177.314 7.192 177.474 7.032C177.634 6.856 177.818 6.744 178.026 6.696C178.314 6.616 178.722 6.576 179.25 6.576C179.778 6.56 180.274 6.56 180.738 6.576C180.722 6.416 180.714 6.264 180.714 6.12C180.714 5.96 180.706 5.808 180.69 5.664C180.674 5.472 180.666 5.232 180.666 4.944C180.666 4.64 180.682 4.344 180.714 4.056C180.762 3.752 180.834 3.472 180.93 3.216C181.026 2.944 181.162 2.736 181.338 2.592C181.578 2.4 181.818 2.296 182.058 2.28C182.314 2.248 182.546 2.28 182.754 2.376C182.978 2.472 183.162 2.616 183.306 2.808C183.466 2.984 183.578 3.184 183.642 3.408C183.69 3.6 183.73 3.832 183.762 4.104C183.794 4.36 183.81 4.632 183.81 4.92C183.826 5.208 183.834 5.496 183.834 5.784C183.834 6.072 183.834 6.336 183.834 6.576H184.074C184.314 6.576 184.594 6.568 184.914 6.552C185.234 6.536 185.546 6.544 185.85 6.576C186.17 6.608 186.458 6.688 186.714 6.816C186.97 6.928 187.162 7.128 187.29 7.416ZM191.13 7.152C191.658 6.896 192.21 6.712 192.786 6.6C193.362 6.488 193.93 6.464 194.49 6.528C195.066 6.592 195.618 6.744 196.146 6.984C196.69 7.224 197.186 7.56 197.634 7.992C198.002 8.36 198.322 8.808 198.594 9.336C198.866 9.848 199.066 10.352 199.194 10.848C199.466 11.728 199.506 12.616 199.314 13.512C199.122 14.408 198.794 15.24 198.33 16.008C198.106 16.36 197.826 16.68 197.49 16.968C197.17 17.24 196.826 17.464 196.458 17.64C195.978 17.864 195.458 18.016 194.898 18.096C194.338 18.192 193.794 18.216 193.266 18.168C192.306 18.12 191.458 17.88 190.722 17.448C190.002 17.016 189.418 16.464 188.97 15.792C188.538 15.12 188.25 14.36 188.106 13.512C187.978 12.648 188.034 11.768 188.274 10.872C188.53 9.912 188.898 9.136 189.378 8.544C189.874 7.936 190.458 7.472 191.13 7.152ZM191.85 10.368C191.61 10.592 191.426 10.872 191.298 11.208C191.17 11.544 191.09 11.896 191.058 12.264C191.026 12.616 191.05 12.976 191.13 13.344C191.226 13.696 191.37 14.016 191.562 14.304C191.722 14.544 192.01 14.744 192.426 14.904C192.842 15.064 193.274 15.16 193.722 15.192C194.234 15.224 194.682 15.088 195.066 14.784C195.45 14.464 195.738 14.072 195.93 13.608C196.138 13.144 196.234 12.64 196.218 12.096C196.202 11.552 196.058 11.056 195.786 10.608C195.594 10.288 195.322 10.056 194.97 9.912C194.634 9.752 194.274 9.672 193.89 9.672C193.522 9.656 193.154 9.712 192.786 9.84C192.418 9.952 192.106 10.128 191.85 10.368Z" fill="#545656"/>
<path d="M28.7225 31.28C28.8292 31.7867 28.8292 32.32 28.7225 32.88C28.6692 33.1467 28.6158 33.4133 28.5625 33.68C28.5358 33.92 28.4958 34.1733 28.4425 34.44L28.4025 34.6C28.0292 36.2533 27.6025 38 27.1225 39.84C26.6692 41.6533 26.2558 43.3733 25.8825 45C25.5625 46.3333 25.2292 47.8 24.8825 49.4C24.5358 51 24.1758 52.4667 23.8025 53.8C23.6692 54.2533 23.5225 54.7067 23.3625 55.16C23.2292 55.6133 23.0558 56.0667 22.8425 56.52C22.6558 56.92 22.4292 57.28 22.1625 57.6C21.9225 57.8933 21.6425 58.1067 21.3225 58.24C21.0025 58.4 20.6558 58.4533 20.2825 58.4C19.9358 58.3733 19.5492 58.2133 19.1225 57.92C18.4825 57.4667 18.0025 56.84 17.6825 56.04C17.3892 55.24 17.0825 54.5067 16.7625 53.84C16.6558 53.6533 16.4958 53.24 16.2825 52.6C16.0692 51.96 15.8425 51.2667 15.6025 50.52C15.3625 49.7467 15.1225 49.0133 14.8825 48.32C14.6692 47.6 14.4825 47.0667 14.3225 46.72C14.0825 47.3067 13.8425 47.9733 13.6025 48.72C13.3625 49.4667 13.1358 50.2 12.9225 50.92C12.7092 51.64 12.5092 52.2933 12.3225 52.88C12.1625 53.44 12.0425 53.8533 11.9625 54.12C11.7492 54.6533 11.5092 55.24 11.2425 55.88C11.0025 56.52 10.6958 57.0667 10.3225 57.52C9.97583 57.9733 9.54917 58.2667 9.0425 58.4C8.53583 58.56 7.93583 58.4133 7.2425 57.96C6.70917 57.64 6.33583 57.1867 6.1225 56.6C5.98917 56.2267 5.85583 55.8667 5.7225 55.52C5.58917 55.1733 5.4825 54.8133 5.4025 54.44L4.6025 51.44L2.9625 45C2.74917 44.1733 2.53583 43.3333 2.3225 42.48C2.13583 41.6 1.90917 40.6933 1.6425 39.76C1.50917 39.3067 1.38917 38.8667 1.2825 38.44C1.2025 37.9867 1.10917 37.5067 1.0025 37C0.9225 36.4667 0.815833 35.8667 0.6825 35.2C0.575833 34.5333 0.4425 33.76 0.2825 32.88C0.229167 32.5867 0.189167 32.32 0.1625 32.08C0.1625 31.8133 0.189167 31.5467 0.2425 31.28C0.295833 30.88 0.4825 30.5333 0.8025 30.24C0.935833 30.1067 1.09583 30 1.2825 29.92C1.46917 29.84 1.66917 29.7733 1.8825 29.72C2.2025 29.6133 2.53583 29.56 2.8825 29.56C3.2025 29.56 3.53583 29.6667 3.8825 29.88C4.1225 30.0133 4.30917 30.1867 4.4425 30.4L4.9225 31.24C4.97583 31.4267 5.02917 31.6 5.0825 31.76C5.13583 31.8933 5.18917 32.04 5.2425 32.2C5.29583 32.3867 5.33583 32.56 5.3625 32.72C5.38917 32.8533 5.41583 32.9867 5.4425 33.12C5.6825 34.5067 5.97583 35.8533 6.3225 37.16C6.66917 38.4667 6.98917 39.72 7.2825 40.92C7.38917 41.4 7.5225 42 7.6825 42.72C7.8425 43.4133 8.0025 44.1467 8.1625 44.92C8.3225 45.6667 8.4825 46.3867 8.6425 47.08C8.8025 47.7733 8.9625 48.32 9.1225 48.72C9.46917 47.52 9.81583 46.32 10.1625 45.12C10.5358 43.92 10.9358 42.7067 11.3625 41.48C11.5758 40.84 11.7892 40.2667 12.0025 39.76C12.2425 39.2267 12.5092 38.7867 12.8025 38.44C13.0958 38.0933 13.4292 37.8667 13.8025 37.76C14.1758 37.6533 14.6158 37.6933 15.1225 37.88C15.5758 38.0667 15.9758 38.4667 16.3225 39.08C16.6692 39.6933 16.9758 40.32 17.2425 40.96C17.4825 41.5467 17.7092 42.1733 17.9225 42.84C18.1625 43.48 18.3892 44.12 18.6025 44.76C18.8425 45.3733 19.0692 45.96 19.2825 46.52C19.4958 47.08 19.7092 47.56 19.9225 47.96C20.0025 47.6667 20.0958 47.2933 20.2025 46.84C20.3092 46.3867 20.4158 45.9067 20.5225 45.4C20.6558 44.8667 20.7758 44.3467 20.8825 43.84C20.9892 43.3333 21.0958 42.8667 21.2025 42.44C21.5492 41 21.9092 39.56 22.2825 38.12C22.6558 36.6533 23.0158 35.2133 23.3625 33.8L23.5625 33.12C23.6158 32.9867 23.6425 32.8533 23.6425 32.72C23.6692 32.56 23.7092 32.3867 23.7625 32.2C23.8158 32.04 23.8692 31.8933 23.9225 31.76C23.9758 31.6 24.0292 31.4267 24.0825 31.24C24.1358 31.1067 24.1892 30.9733 24.2425 30.84C24.3225 30.68 24.4158 30.5333 24.5225 30.4C24.6025 30.2667 24.6958 30.16 24.8025 30.08C24.9092 30 25.0158 29.9333 25.1225 29.88C25.4958 29.6667 25.8158 29.56 26.0825 29.56C26.4292 29.56 26.7625 29.6133 27.0825 29.72C27.5092 29.8 27.8958 29.9733 28.2425 30.24C28.5092 30.5067 28.6692 30.8533 28.7225 31.28ZM47.6375 50.12C47.6642 50.6533 47.6775 51.2133 47.6775 51.8C47.6775 52.36 47.6642 52.88 47.6375 53.36C47.6108 54.08 47.5708 54.7467 47.5175 55.36C47.4642 55.9467 47.3575 56.4533 47.1975 56.88C47.0375 57.28 46.7842 57.5867 46.4375 57.8C46.1175 57.9867 45.6642 58.04 45.0775 57.96C44.4642 57.88 44.0242 57.5867 43.7575 57.08C43.4908 56.5733 43.3042 56 43.1975 55.36C43.1175 54.6933 43.0908 54.0267 43.1175 53.36C43.1442 52.6933 43.1442 52.1733 43.1175 51.8C43.0908 51.2133 43.0642 50.5467 43.0375 49.8C43.0375 49.0267 42.9575 48.3067 42.7975 47.64C42.6642 46.9467 42.4242 46.36 42.0775 45.88C41.7308 45.4 41.2108 45.1467 40.5175 45.12C39.6375 45.0667 38.9575 45.1333 38.4775 45.32C38.0242 45.5067 37.6908 45.7867 37.4775 46.16C37.2642 46.5067 37.1308 46.9333 37.0775 47.44C37.0508 47.9467 36.9975 48.4933 36.9175 49.08L36.8775 50.64V53.56C36.8775 54.04 36.8642 54.5467 36.8375 55.08C36.8375 55.5867 36.7575 56.0533 36.5975 56.48C36.4375 56.9067 36.1842 57.2667 35.8375 57.56C35.5175 57.8533 35.0375 58 34.3975 58C33.5975 58 32.9975 57.7467 32.5975 57.24C32.2242 56.7067 32.0375 56.0533 32.0375 55.28V32.28C32.0375 32.12 32.0375 31.9733 32.0375 31.84C32.0642 31.68 32.0908 31.52 32.1175 31.36C32.1708 31.2 32.2108 31.0533 32.2375 30.92C32.2642 30.76 32.3042 30.6133 32.3575 30.48C32.4375 30.2133 32.5708 30.0133 32.7575 29.88C32.8908 29.7467 33.0242 29.64 33.1575 29.56C33.2908 29.48 33.4375 29.4267 33.5975 29.4C33.7308 29.3733 33.8775 29.36 34.0375 29.36C34.1975 29.3333 34.3575 29.32 34.5175 29.32C34.9175 29.32 35.3042 29.44 35.6775 29.68C35.8375 29.7867 35.9842 29.9067 36.1175 30.04C36.2508 30.1467 36.3575 30.3067 36.4375 30.52C36.6508 31.0267 36.7575 31.5067 36.7575 31.96C36.7842 32.0933 36.7975 32.2933 36.7975 32.56C36.8242 32.8 36.8375 33.0533 36.8375 33.32C36.8375 33.5867 36.8375 33.8533 36.8375 34.12C36.8642 34.36 36.8775 34.5467 36.8775 34.68V34.88C36.9042 35.7333 36.9175 36.6 36.9175 37.48C36.9175 38.36 36.9175 39.2533 36.9175 40.16V40.84C38.0375 40.4667 39.2108 40.2933 40.4375 40.32C41.6642 40.32 42.7575 40.56 43.7175 41.04C44.7042 41.5467 45.4508 42.12 45.9575 42.76C46.4908 43.4 46.8775 44.1067 47.1175 44.88C47.3575 45.6533 47.4908 46.48 47.5175 47.36C47.5708 48.24 47.6108 49.16 47.6375 50.12ZM64.7056 52.52C65.0256 52.44 65.3456 52.3867 65.6656 52.36C66.0123 52.3333 66.319 52.3733 66.5856 52.48C66.879 52.5867 67.119 52.7733 67.3056 53.04C67.4923 53.28 67.5856 53.6267 67.5856 54.08C67.5856 54.4 67.5056 54.7067 67.3456 55C67.1856 55.2933 66.9856 55.56 66.7456 55.8C66.5056 56.04 66.239 56.2533 65.9456 56.44C65.6523 56.6 65.3723 56.7333 65.1056 56.84C64.3323 57.1867 63.439 57.4533 62.4256 57.64C61.439 57.8267 60.4123 57.8933 59.3456 57.84C57.9056 57.7867 56.519 57.5067 55.1856 57C53.879 56.4667 52.8523 55.6 52.1056 54.4C51.4123 53.2267 50.999 51.92 50.8656 50.48C50.7323 49.04 50.799 47.68 51.0656 46.4C51.359 44.8533 51.8523 43.6 52.5456 42.64C53.2656 41.6533 54.119 40.8667 55.1056 40.28C56.3056 39.5867 57.6523 39.2267 59.1456 39.2C60.639 39.1733 62.0656 39.4667 63.4256 40.08C64.3323 40.48 65.1456 41.0267 65.8656 41.72C66.5856 42.3867 67.1323 43.2 67.5056 44.16C67.6123 44.4 67.6923 44.6933 67.7456 45.04C67.8256 45.3867 67.879 45.76 67.9056 46.16C67.9323 46.5333 67.9323 46.9067 67.9056 47.28C67.879 47.6533 67.8123 47.9867 67.7056 48.28C67.5456 48.76 67.3456 49.1333 67.1056 49.4C66.8656 49.6667 66.559 49.8667 66.1856 50C65.8123 50.1333 65.359 50.2267 64.8256 50.28C64.319 50.3067 63.7056 50.3333 62.9856 50.36C62.3456 50.3867 61.7456 50.4 61.1856 50.4C60.6256 50.4 60.0523 50.4 59.4656 50.4C58.879 50.3733 58.2656 50.36 57.6256 50.36C57.0123 50.3333 56.319 50.3067 55.5456 50.28C55.4656 50.8133 55.5323 51.28 55.7456 51.68C55.9856 52.0533 56.3056 52.3733 56.7056 52.64C57.1056 52.88 57.559 53.0667 58.0656 53.2C58.5723 53.3333 59.0656 53.4133 59.5456 53.44C60.4523 53.4933 61.319 53.4267 62.1456 53.24C62.9723 53.0267 63.8256 52.7867 64.7056 52.52ZM62.9856 44.76C62.479 44.1733 61.9456 43.7467 61.3856 43.48C60.959 43.2933 60.5056 43.2133 60.0256 43.24C59.5723 43.24 59.1323 43.3067 58.7056 43.44C57.9323 43.6267 57.279 44.0267 56.7456 44.64C56.6923 44.6933 56.599 44.8267 56.4656 45.04C56.3323 45.2267 56.199 45.4267 56.0656 45.64C55.959 45.8533 55.879 46.0533 55.8256 46.24C55.7723 46.4267 55.799 46.52 55.9056 46.52H63.7456C63.719 46.1467 63.6523 45.84 63.5456 45.6C63.439 45.3333 63.2523 45.0533 62.9856 44.76ZM71.1791 43.84C71.1791 43.52 71.1791 43.16 71.1791 42.76C71.1791 42.3333 71.1924 41.9067 71.2191 41.48C71.2457 41.0267 71.2857 40.6 71.3391 40.2C71.4191 39.7733 71.5257 39.4 71.6591 39.08C71.8724 38.6 72.2057 38.28 72.6591 38.12C73.1124 37.9333 73.6057 37.8533 74.1391 37.88C74.6991 37.88 75.1391 37.9733 75.4591 38.16C75.7791 38.3467 76.0191 38.6 76.1791 38.92C76.3391 39.2133 76.4324 39.56 76.4591 39.96C76.5124 40.3333 76.5391 40.7333 76.5391 41.16C76.7791 40.7333 77.0991 40.3867 77.4991 40.12C77.9257 39.8533 78.3524 39.64 78.7791 39.48C79.2057 39.32 79.5924 39.2133 79.9391 39.16C80.2857 39.08 80.4857 39.04 80.5391 39.04C81.2057 38.9867 81.8057 38.9733 82.3391 39C82.8991 39.0267 83.5124 39.1467 84.1791 39.36C84.6057 39.52 85.0457 39.7467 85.4991 40.04C85.9524 40.3067 86.3524 40.6267 86.6991 41C87.0457 41.3733 87.2724 41.7867 87.3791 42.24C87.5124 42.6667 87.4591 43.12 87.2191 43.6C86.8457 44.2667 86.4324 44.6 85.9791 44.6C85.5257 44.5733 85.0324 44.4933 84.4991 44.36C84.2057 44.3067 83.8591 44.1867 83.4591 44C83.0591 43.8133 82.7124 43.6933 82.4191 43.64C81.5124 43.5067 80.7124 43.5733 80.0191 43.84C79.3257 44.1067 78.7257 44.4267 78.2191 44.8C77.6324 45.2533 77.1257 45.7733 76.6991 46.36V52.12C76.6991 52.84 76.6857 53.5867 76.6591 54.36C76.6591 55.1333 76.5524 55.84 76.3391 56.48C76.1524 57.0933 75.8191 57.6 75.3391 58C74.8857 58.3733 74.2191 58.5333 73.3391 58.48C72.8591 58.4533 72.4324 58.2267 72.0591 57.8C71.6857 57.3467 71.4591 56.9067 71.3791 56.48C71.3257 56.08 71.2857 55.6 71.2591 55.04C71.2324 54.48 71.2057 53.8933 71.1791 53.28C71.1791 52.6667 71.1791 52.0533 71.1791 51.44C71.1791 50.8 71.1791 50.2133 71.1791 49.68V43.84ZM102.128 52.52C102.448 52.44 102.768 52.3867 103.088 52.36C103.434 52.3333 103.741 52.3733 104.008 52.48C104.301 52.5867 104.541 52.7733 104.728 53.04C104.914 53.28 105.008 53.6267 105.008 54.08C105.008 54.4 104.928 54.7067 104.768 55C104.608 55.2933 104.408 55.56 104.168 55.8C103.928 56.04 103.661 56.2533 103.368 56.44C103.074 56.6 102.794 56.7333 102.528 56.84C101.754 57.1867 100.861 57.4533 99.8475 57.64C98.8608 57.8267 97.8342 57.8933 96.7675 57.84C95.3275 57.7867 93.9408 57.5067 92.6075 57C91.3008 56.4667 90.2742 55.6 89.5275 54.4C88.8342 53.2267 88.4208 51.92 88.2875 50.48C88.1542 49.04 88.2208 47.68 88.4875 46.4C88.7808 44.8533 89.2742 43.6 89.9675 42.64C90.6875 41.6533 91.5408 40.8667 92.5275 40.28C93.7275 39.5867 95.0742 39.2267 96.5675 39.2C98.0608 39.1733 99.4875 39.4667 100.848 40.08C101.754 40.48 102.568 41.0267 103.288 41.72C104.008 42.3867 104.554 43.2 104.928 44.16C105.034 44.4 105.114 44.6933 105.168 45.04C105.248 45.3867 105.301 45.76 105.328 46.16C105.354 46.5333 105.354 46.9067 105.328 47.28C105.301 47.6533 105.234 47.9867 105.128 48.28C104.968 48.76 104.768 49.1333 104.528 49.4C104.288 49.6667 103.981 49.8667 103.608 50C103.234 50.1333 102.781 50.2267 102.248 50.28C101.741 50.3067 101.128 50.3333 100.408 50.36C99.7675 50.3867 99.1675 50.4 98.6075 50.4C98.0475 50.4 97.4742 50.4 96.8875 50.4C96.3008 50.3733 95.6875 50.36 95.0475 50.36C94.4342 50.3333 93.7408 50.3067 92.9675 50.28C92.8875 50.8133 92.9542 51.28 93.1675 51.68C93.4075 52.0533 93.7275 52.3733 94.1275 52.64C94.5275 52.88 94.9808 53.0667 95.4875 53.2C95.9942 53.3333 96.4875 53.4133 96.9675 53.44C97.8742 53.4933 98.7408 53.4267 99.5675 53.24C100.394 53.0267 101.248 52.7867 102.128 52.52ZM100.408 44.76C99.9008 44.1733 99.3675 43.7467 98.8075 43.48C98.3808 43.2933 97.9275 43.2133 97.4475 43.24C96.9942 43.24 96.5542 43.3067 96.1275 43.44C95.3542 43.6267 94.7008 44.0267 94.1675 44.64C94.1142 44.6933 94.0208 44.8267 93.8875 45.04C93.7542 45.2267 93.6208 45.4267 93.4875 45.64C93.3808 45.8533 93.3008 46.0533 93.2475 46.24C93.1942 46.4267 93.2208 46.52 93.3275 46.52H101.168C101.141 46.1467 101.074 45.84 100.968 45.6C100.861 45.3333 100.674 45.0533 100.408 44.76ZM123.992 42.84C123.992 43.5867 123.992 44.4267 123.992 45.36C124.018 46.2933 124.032 47.2667 124.032 48.28C124.032 49.2667 124.032 50.2533 124.032 51.24C124.032 52.2 124.018 53.0933 123.992 53.92C123.965 54.32 123.925 54.76 123.872 55.24C123.818 55.6933 123.712 56.12 123.552 56.52C123.392 56.92 123.138 57.2533 122.792 57.52C122.472 57.76 122.032 57.8667 121.472 57.84C120.645 57.7867 120.045 57.4267 119.672 56.76C119.325 56.0933 119.125 55.16 119.072 53.96C119.072 53.3467 119.058 52.64 119.032 51.84C119.032 51.04 119.018 50.2267 118.992 49.4C118.992 48.5733 118.992 47.7733 118.992 47C118.992 46.2 118.992 45.48 118.992 44.84C118.992 44.4667 118.978 44.0133 118.952 43.48C118.952 42.9467 118.965 42.4 118.992 41.84C119.018 41.28 119.085 40.7467 119.192 40.24C119.298 39.7067 119.472 39.2667 119.712 38.92C119.898 38.7067 120.165 38.5467 120.512 38.44C120.858 38.3067 121.218 38.24 121.592 38.24C121.992 38.24 122.365 38.3067 122.712 38.44C123.085 38.5733 123.352 38.76 123.512 39C123.618 39.16 123.698 39.3867 123.752 39.68C123.805 39.9733 123.845 40.3067 123.872 40.68C123.925 41.0267 123.952 41.4 123.952 41.8C123.978 42.1733 123.992 42.52 123.992 42.84ZM122.472 34.76C121.645 34.9733 120.952 34.8933 120.392 34.52C119.858 34.12 119.525 33.5333 119.392 32.76C119.285 32.2 119.325 31.7067 119.512 31.28C119.698 30.8533 119.978 30.5333 120.352 30.32C120.725 30.08 121.152 29.9733 121.632 30C122.112 30.0267 122.592 30.2133 123.072 30.56C123.525 30.88 123.845 31.2533 124.032 31.68C124.245 32.1067 124.312 32.52 124.232 32.92C124.178 33.32 124.005 33.6933 123.712 34.04C123.418 34.36 123.005 34.6 122.472 34.76ZM137.066 50.96C136.56 50.64 135.986 50.3867 135.346 50.2C134.733 50.0133 134.093 49.84 133.426 49.68C132.786 49.52 132.16 49.3467 131.546 49.16C130.933 48.9467 130.373 48.6533 129.866 48.28C128.773 47.4533 128.133 46.44 127.946 45.24C127.786 44.0133 128.053 42.7867 128.746 41.56C129.12 40.92 129.613 40.4 130.226 40C130.84 39.5733 131.506 39.2533 132.226 39.04C132.973 38.8 133.733 38.6667 134.506 38.64C135.28 38.6133 136.013 38.6533 136.706 38.76C137.16 38.84 137.64 38.96 138.146 39.12C138.653 39.2533 139.12 39.44 139.546 39.68C140 39.92 140.4 40.2267 140.746 40.6C141.12 40.9467 141.386 41.3867 141.546 41.92C141.653 42.2667 141.666 42.6 141.586 42.92C141.533 43.24 141.4 43.5067 141.186 43.72C141 43.9333 140.746 44.0933 140.426 44.2C140.133 44.3067 139.813 44.3333 139.466 44.28C139.066 44.2 138.693 44.08 138.346 43.92C138 43.76 137.653 43.5867 137.306 43.4C136.96 43.2133 136.6 43.0533 136.226 42.92C135.88 42.7867 135.506 42.72 135.106 42.72C134.493 42.6933 133.986 42.8 133.586 43.04C133.186 43.28 132.906 43.5733 132.746 43.92C132.613 44.2667 132.626 44.64 132.786 45.04C132.973 45.44 133.346 45.7867 133.906 46.08C134.413 46.3467 134.973 46.56 135.586 46.72C136.2 46.88 136.8 47.04 137.386 47.2C138 47.36 138.586 47.5467 139.146 47.76C139.733 47.9733 140.253 48.2667 140.706 48.64C141.586 49.36 142.12 50.2 142.306 51.16C142.52 52.12 142.466 53.0667 142.146 54C141.826 54.9333 141.266 55.76 140.466 56.48C139.693 57.2 138.773 57.68 137.706 57.92C136.933 58.08 136.093 58.16 135.186 58.16C134.306 58.16 133.426 58.0667 132.546 57.88C131.693 57.6933 130.866 57.4 130.066 57C129.293 56.6 128.64 56.0933 128.106 55.48C127.733 55.0533 127.533 54.5733 127.506 54.04C127.506 53.48 127.613 53 127.826 52.6C128.066 52.1733 128.4 51.88 128.826 51.72C129.253 51.56 129.733 51.6533 130.266 52C130.693 52.2933 131.2 52.5867 131.786 52.88C132.373 53.1467 132.96 53.36 133.546 53.52C134.133 53.68 134.693 53.76 135.226 53.76C135.786 53.76 136.266 53.64 136.666 53.4C137.253 53.0267 137.56 52.6 137.586 52.12C137.613 51.6133 137.44 51.2267 137.066 50.96ZM177.741 48.68C177.794 49.5333 177.821 50.3467 177.821 51.12C177.821 51.8667 177.794 52.6667 177.741 53.52C177.741 53.84 177.741 54.2 177.741 54.6C177.741 55 177.714 55.3867 177.661 55.76C177.608 56.1333 177.514 56.48 177.381 56.8C177.248 57.12 177.048 57.3733 176.781 57.56C176.461 57.7733 176.101 57.92 175.701 58C175.301 58.0533 174.928 58.0267 174.581 57.92C174.234 57.8133 173.928 57.6133 173.661 57.32C173.421 57.0267 173.288 56.6133 173.261 56.08C173.181 54.8533 173.141 53.6267 173.141 52.4C173.141 51.7867 173.128 51.2 173.101 50.64C173.101 50.08 173.114 49.2933 173.141 48.28C173.141 47.7733 173.101 47.2 173.021 46.56C172.941 45.8933 172.741 45.4267 172.421 45.16C172.181 44.9467 171.914 44.8267 171.621 44.8C171.328 44.7467 171.034 44.7733 170.741 44.88C170.474 44.9867 170.234 45.1867 170.021 45.48C169.808 45.7467 169.661 46.0933 169.581 46.52C169.581 46.8667 169.568 47.2267 169.541 47.6C169.541 47.9467 169.554 48.28 169.581 48.6C169.608 49.4533 169.621 50.2667 169.621 51.04C169.621 51.7867 169.608 52.5867 169.581 53.44C169.554 53.7867 169.541 54.16 169.541 54.56C169.568 54.96 169.568 55.36 169.541 55.76C169.514 56.1333 169.434 56.48 169.301 56.8C169.194 57.12 168.994 57.3733 168.701 57.56C168.381 57.7733 168.034 57.9067 167.661 57.96C167.314 57.9867 166.981 57.9333 166.661 57.8C166.368 57.64 166.101 57.4 165.861 57.08C165.648 56.76 165.528 56.3333 165.501 55.8C165.448 55.1867 165.408 54.6267 165.381 54.12C165.381 53.5867 165.381 53.0267 165.381 52.44C165.381 51.8267 165.394 51.2 165.421 50.56C165.448 49.8933 165.434 49.2533 165.381 48.64C165.381 48.4533 165.368 48.24 165.341 48C165.341 47.7333 165.328 47.4667 165.301 47.2C165.301 46.9333 165.274 46.68 165.221 46.44C165.194 46.1733 165.141 45.96 165.061 45.8C164.848 45.4267 164.461 45.1867 163.901 45.08C163.368 44.9733 162.914 45.0133 162.541 45.2C162.168 45.3867 161.888 45.6267 161.701 45.92C161.514 46.2133 161.381 46.5333 161.301 46.88C161.221 47.2267 161.181 47.6 161.181 48C161.181 48.3733 161.181 48.7333 161.181 49.08C161.181 50.8133 161.181 52.32 161.181 53.6C161.208 54.8533 161.074 55.8667 160.781 56.64C160.648 57.04 160.368 57.3467 159.941 57.56C159.541 57.7733 159.101 57.88 158.621 57.88C158.168 57.88 157.741 57.7733 157.341 57.56C156.941 57.3467 156.674 57.0133 156.541 56.56C156.461 56.2667 156.381 55.8533 156.301 55.32C156.248 54.76 156.208 54.1467 156.181 53.48C156.154 52.8133 156.141 52.1467 156.141 51.48C156.141 50.7867 156.141 50.16 156.141 49.6V43.84C156.114 43.2267 156.101 42.56 156.101 41.84C156.101 41.12 156.208 40.4667 156.421 39.88C156.608 39.3733 156.901 39.0533 157.301 38.92C157.701 38.76 158.114 38.6933 158.541 38.72C159.021 38.72 159.394 38.8533 159.661 39.12C159.954 39.36 160.168 39.6667 160.301 40.04C160.434 40.3867 160.514 40.7867 160.541 41.24C160.568 41.6667 160.594 42.08 160.621 42.48C160.914 41.8133 161.261 41.2667 161.661 40.84C162.088 40.3867 162.688 40.0933 163.461 39.96C165.434 39.5867 167.008 40.0933 168.181 41.48C168.714 40.9467 169.394 40.5067 170.221 40.16C170.861 39.92 171.514 39.8133 172.181 39.84C172.848 39.84 173.474 39.96 174.061 40.2C174.674 40.44 175.221 40.7867 175.701 41.24C176.208 41.6933 176.608 42.24 176.901 42.88C177.301 43.7333 177.528 44.68 177.581 45.72C177.634 46.76 177.688 47.7467 177.741 48.68ZM198.601 40.16C198.841 40.5333 198.947 40.9333 198.921 41.36C198.921 41.9733 198.814 42.5067 198.601 42.96C198.547 43.0933 198.467 43.2667 198.361 43.48C198.281 43.6933 198.187 43.92 198.081 44.16C198.001 44.4 197.907 44.6267 197.801 44.84C197.694 45.0533 197.614 45.2133 197.561 45.32L197.481 45.52C197.107 46.3467 196.747 47.1467 196.401 47.92C196.054 48.6933 195.667 49.52 195.241 50.4C194.814 51.2533 194.401 52.0933 194.001 52.92C193.627 53.72 193.254 54.5067 192.881 55.28C192.774 55.4933 192.681 55.7067 192.601 55.92C192.521 56.1067 192.414 56.3067 192.281 56.52L190.361 60.64C190.014 61.3333 189.681 62.0133 189.361 62.68C189.067 63.3467 188.734 64.0133 188.361 64.68C188.281 64.8133 188.201 64.9333 188.121 65.04C188.067 65.1733 188.014 65.3067 187.961 65.44C187.774 65.76 187.494 66.0667 187.121 66.36C186.774 66.68 186.401 66.8533 186.001 66.88C185.281 66.9333 184.654 66.72 184.121 66.24C183.801 66.0533 183.547 65.7867 183.361 65.44C183.254 65.2 183.201 64.8933 183.201 64.52C183.227 64.36 183.241 64.2 183.241 64.04C183.267 63.9067 183.294 63.7733 183.321 63.64C183.374 63.5067 183.414 63.3733 183.441 63.24C183.467 63.1067 183.507 63 183.561 62.92C183.641 62.7067 183.707 62.6 183.761 62.6L186.681 56.28C186.547 55.9867 186.414 55.6933 186.281 55.4C186.147 55.08 186.027 54.8 185.921 54.56C185.574 53.7333 185.201 52.8667 184.801 51.96C184.427 51.0267 184.041 50.1067 183.641 49.2C183.241 48.2667 182.827 47.36 182.401 46.48C181.974 45.6 181.547 44.76 181.121 43.96C180.961 43.6933 180.814 43.4133 180.681 43.12C180.547 42.8 180.441 42.4933 180.361 42.2C180.281 41.88 180.254 41.56 180.281 41.24C180.307 40.92 180.427 40.6 180.641 40.28C180.854 39.88 181.134 39.6 181.481 39.44C181.827 39.2533 182.187 39.1733 182.561 39.2C182.961 39.2 183.334 39.28 183.681 39.44C184.027 39.6 184.307 39.8133 184.521 40.08C184.974 40.56 185.334 41.0933 185.601 41.68C185.867 42.2667 186.121 42.8667 186.361 43.48C186.867 44.5467 187.387 45.6667 187.921 46.84C188.454 48.0133 188.987 49.16 189.521 50.28L191.601 45.88C191.814 45.4533 192.001 45.04 192.161 44.64C192.347 44.24 192.534 43.8533 192.721 43.48C192.934 43.0267 193.134 42.56 193.321 42.08C193.534 41.6 193.774 41.16 194.041 40.76C194.094 40.6533 194.147 40.56 194.201 40.48C194.254 40.4 194.307 40.3067 194.361 40.2C194.601 39.88 194.814 39.6267 195.001 39.44C195.134 39.3333 195.241 39.2533 195.321 39.2C195.427 39.12 195.547 39.0667 195.681 39.04C195.867 38.9867 196.041 38.96 196.201 38.96C196.387 38.9333 196.561 38.9333 196.721 38.96C196.987 39.04 197.307 39.16 197.681 39.32C198.081 39.48 198.387 39.76 198.601 40.16ZM212.625 32.72C212.679 31.76 212.972 30.9867 213.505 30.4C214.065 29.8133 214.852 29.6533 215.865 29.92C216.345 30.0533 216.692 30.2533 216.905 30.52C217.145 30.7867 217.305 31.1067 217.385 31.48C217.492 31.8267 217.545 32.2133 217.545 32.64C217.545 33.04 217.545 33.44 217.545 33.84V39.36C217.519 39.5733 217.505 39.7867 217.505 40C217.532 40.1867 217.545 40.36 217.545 40.52V41.04H218.545C218.839 41.04 219.119 41.04 219.385 41.04C219.679 41.04 219.932 41.0267 220.145 41C221.612 41 222.865 41.2133 223.905 41.64C224.972 42.0667 225.825 42.6667 226.465 43.44C227.132 44.1867 227.612 45.0933 227.905 46.16C228.225 47.2 228.372 48.3467 228.345 49.6C228.319 51.0933 228.079 52.3733 227.625 53.44C227.172 54.5067 226.532 55.3867 225.705 56.08C224.879 56.7733 223.879 57.2933 222.705 57.64C221.559 57.96 220.265 58.12 218.825 58.12C217.172 58.12 215.919 58.1067 215.065 58.08C214.212 58.0533 213.599 57.8133 213.225 57.36C212.879 56.9067 212.692 56.12 212.665 55C212.639 53.88 212.625 52.24 212.625 50.08C212.625 48 212.625 45.9467 212.625 43.92C212.652 41.8933 212.652 39.8533 212.625 37.8C212.625 37.5333 212.612 37.2533 212.585 36.96C212.585 36.6667 212.585 36.3333 212.585 35.96C212.585 35.5867 212.585 35.1467 212.585 34.64C212.585 34.1067 212.599 33.4667 212.625 32.72ZM220.105 53.64C221.572 53.56 222.585 53.16 223.145 52.44C223.439 52.04 223.665 51.56 223.825 51C223.985 50.44 224.052 49.88 224.025 49.32C223.999 48.76 223.879 48.2267 223.665 47.72C223.479 47.1867 223.172 46.7467 222.745 46.4C222.372 46.08 221.999 45.8533 221.625 45.72C221.252 45.56 220.865 45.4667 220.465 45.44C220.065 45.3867 219.639 45.3733 219.185 45.4C218.732 45.4 218.212 45.4133 217.625 45.44V50.24L217.545 53.56C217.812 53.5867 218.092 53.6133 218.385 53.64C218.892 53.6933 219.465 53.6933 220.105 53.64ZM248.009 48.48C247.955 49.36 247.902 50.2533 247.849 51.16C247.795 52.04 247.649 52.8933 247.409 53.72C247.195 54.5467 246.849 55.2933 246.369 55.96C245.915 56.6267 245.262 57.16 244.409 57.56C243.662 57.9333 242.862 58.1867 242.009 58.32C241.155 58.48 240.302 58.5467 239.449 58.52C238.595 58.4933 237.769 58.36 236.969 58.12C236.169 57.9067 235.449 57.6 234.809 57.2C234.169 56.8 233.649 56.28 233.249 55.64C232.849 55 232.529 54.3067 232.289 53.56C232.075 52.8133 231.929 52.04 231.849 51.24C231.769 50.44 231.715 49.6933 231.689 49C231.582 47.16 231.582 45.3467 231.689 43.56C231.689 43.2133 231.689 42.8267 231.689 42.4C231.689 41.9467 231.715 41.5067 231.769 41.08C231.849 40.6533 231.969 40.2667 232.129 39.92C232.289 39.5467 232.555 39.2667 232.929 39.08C233.729 38.6533 234.462 38.6267 235.129 39C235.822 39.3733 236.235 40.1467 236.369 41.32C236.449 41.9333 236.475 42.6133 236.449 43.36C236.449 44.1067 236.475 44.7867 236.529 45.4C236.555 46.3067 236.582 47.2933 236.609 48.36C236.635 49.4 236.782 50.3333 237.049 51.16C237.342 51.9867 237.809 52.6133 238.449 53.04C239.115 53.44 240.102 53.4533 241.409 53.08C242.022 52.8933 242.422 52.4267 242.609 51.68C242.822 50.9333 242.929 49.8267 242.929 48.36C242.929 47.72 242.915 47.0133 242.889 46.24C242.862 45.4667 242.849 44.7067 242.849 43.96C242.849 43.1867 242.862 42.48 242.889 41.84C242.942 41.1733 243.022 40.6667 243.129 40.32C243.262 39.84 243.542 39.48 243.969 39.24C244.395 39 244.849 38.88 245.329 38.88C245.809 38.8533 246.262 38.9467 246.689 39.16C247.115 39.3733 247.409 39.72 247.569 40.2C247.729 40.6267 247.835 41.1733 247.889 41.84C247.969 42.48 248.022 43.1867 248.049 43.96C248.075 44.7067 248.075 45.48 248.049 46.28C248.049 47.0533 248.035 47.7867 248.009 48.48ZM260.855 50.96C260.349 50.64 259.775 50.3867 259.135 50.2C258.522 50.0133 257.882 49.84 257.215 49.68C256.575 49.52 255.949 49.3467 255.335 49.16C254.722 48.9467 254.162 48.6533 253.655 48.28C252.562 47.4533 251.922 46.44 251.735 45.24C251.575 44.0133 251.842 42.7867 252.535 41.56C252.909 40.92 253.402 40.4 254.015 40C254.629 39.5733 255.295 39.2533 256.015 39.04C256.762 38.8 257.522 38.6667 258.295 38.64C259.069 38.6133 259.802 38.6533 260.495 38.76C260.949 38.84 261.429 38.96 261.935 39.12C262.442 39.2533 262.909 39.44 263.335 39.68C263.789 39.92 264.189 40.2267 264.535 40.6C264.909 40.9467 265.175 41.3867 265.335 41.92C265.442 42.2667 265.455 42.6 265.375 42.92C265.322 43.24 265.189 43.5067 264.975 43.72C264.789 43.9333 264.535 44.0933 264.215 44.2C263.922 44.3067 263.602 44.3333 263.255 44.28C262.855 44.2 262.482 44.08 262.135 43.92C261.789 43.76 261.442 43.5867 261.095 43.4C260.749 43.2133 260.389 43.0533 260.015 42.92C259.669 42.7867 259.295 42.72 258.895 42.72C258.282 42.6933 257.775 42.8 257.375 43.04C256.975 43.28 256.695 43.5733 256.535 43.92C256.402 44.2667 256.415 44.64 256.575 45.04C256.762 45.44 257.135 45.7867 257.695 46.08C258.202 46.3467 258.762 46.56 259.375 46.72C259.989 46.88 260.589 47.04 261.175 47.2C261.789 47.36 262.375 47.5467 262.935 47.76C263.522 47.9733 264.042 48.2667 264.495 48.64C265.375 49.36 265.909 50.2 266.095 51.16C266.309 52.12 266.255 53.0667 265.935 54C265.615 54.9333 265.055 55.76 264.255 56.48C263.482 57.2 262.562 57.68 261.495 57.92C260.722 58.08 259.882 58.16 258.975 58.16C258.095 58.16 257.215 58.0667 256.335 57.88C255.482 57.6933 254.655 57.4 253.855 57C253.082 56.6 252.429 56.0933 251.895 55.48C251.522 55.0533 251.322 54.5733 251.295 54.04C251.295 53.48 251.402 53 251.615 52.6C251.855 52.1733 252.189 51.88 252.615 51.72C253.042 51.56 253.522 51.6533 254.055 52C254.482 52.2933 254.989 52.5867 255.575 52.88C256.162 53.1467 256.749 53.36 257.335 53.52C257.922 53.68 258.482 53.76 259.015 53.76C259.575 53.76 260.055 53.64 260.455 53.4C261.042 53.0267 261.349 52.6 261.375 52.12C261.402 51.6133 261.229 51.2267 260.855 50.96ZM270.419 37C270.313 36.3067 270.259 35.6 270.259 34.88C270.286 34.16 270.419 33.4533 270.659 32.76C270.953 31.8533 271.433 31.0533 272.099 30.36C272.766 29.6667 273.526 29.12 274.379 28.72C275.286 28.2933 276.206 28 277.139 27.84C278.099 27.6533 279.033 27.6133 279.939 27.72C280.873 27.8267 281.766 28.0667 282.619 28.44C283.499 28.7867 284.326 29.2933 285.099 29.96C285.926 30.68 286.539 31.52 286.939 32.48C287.366 33.4133 287.593 34.3867 287.619 35.4C287.673 36.4133 287.553 37.4267 287.259 38.44C286.993 39.4267 286.579 40.3467 286.019 41.2C286.019 41.2 286.006 41.2267 285.979 41.28C285.526 41.8933 285.006 42.4533 284.419 42.96C283.833 43.44 283.286 43.96 282.779 44.52C282.193 45.1333 281.846 45.76 281.739 46.4C281.633 47.0133 281.526 47.7067 281.419 48.48C281.339 49.2267 281.139 49.88 280.819 50.44C280.526 50.9733 279.966 51.2267 279.139 51.2C278.579 51.1733 278.153 51 277.859 50.68C277.593 50.3333 277.393 49.9333 277.259 49.48C277.153 49 277.113 48.5067 277.139 48C277.166 47.4667 277.206 47 277.259 46.6C277.419 45.6667 277.713 44.7867 278.139 43.96C278.566 43.1067 279.086 42.3067 279.699 41.56C280.046 41.16 280.393 40.8 280.739 40.48C281.086 40.1333 281.406 39.7733 281.699 39.4C281.993 39.0267 282.246 38.6267 282.459 38.2C282.673 37.7733 282.819 37.28 282.899 36.72C282.979 36.2133 282.939 35.7067 282.779 35.2C282.619 34.6667 282.379 34.2 282.059 33.8C281.739 33.3733 281.353 33.0267 280.899 32.76C280.446 32.4667 279.953 32.3067 279.419 32.28C278.939 32.2533 278.433 32.32 277.899 32.48C277.366 32.6133 276.873 32.84 276.419 33.16C275.966 33.4533 275.593 33.8133 275.299 34.24C275.033 34.6667 274.913 35.1467 274.939 35.68C274.966 36 275.019 36.3333 275.099 36.68C275.206 37 275.273 37.32 275.299 37.64C275.353 37.9333 275.339 38.2267 275.259 38.52C275.206 38.8133 275.033 39.0933 274.739 39.36C274.259 39.8133 273.779 40.04 273.299 40.04C272.819 40.0133 272.379 39.8533 271.979 39.56C271.579 39.2667 271.233 38.8933 270.939 38.44C270.673 37.96 270.499 37.48 270.419 37ZM281.939 56.96C281.939 57.7333 281.646 58.4267 281.059 59.04C280.499 59.6267 279.846 59.92 279.099 59.92C278.379 59.92 277.739 59.6267 277.179 59.04C276.619 58.4 276.339 57.7067 276.339 56.96C276.339 56.1333 276.619 55.44 277.179 54.88C277.739 54.2667 278.379 53.96 279.099 53.96C279.846 53.96 280.499 54.2667 281.059 54.88C281.646 55.4667 281.939 56.16 281.939 56.96Z" fill="#3D408A"/>
</svg>
