<svg width="12" height="10" viewBox="0 0 12 10" fill="none" xmlns="http://www.w3.org/2000/svg">
<path d="M11.9972 3.75564C12.0242 2.9754 11.8536 2.201 11.5012 1.50434C11.2621 1.21848 10.9303 1.02557 10.5636 0.959227C9.04684 0.821601 7.5238 0.765192 6.00102 0.790243C4.48379 0.764055 2.96623 0.818644 1.4548 0.953776C1.15598 1.00813 0.879445 1.14829 0.658938 1.35716C0.168339 1.8096 0.113828 2.58366 0.0593167 3.23779C-0.0197722 4.4139 -0.0197722 5.59399 0.0593167 6.77011C0.0750868 7.13828 0.129905 7.50373 0.22285 7.86033C0.288577 8.13564 0.421555 8.39036 0.609878 8.60168C0.831884 8.8216 1.11486 8.96974 1.42209 9.02686C2.59731 9.17193 3.78145 9.23205 4.96531 9.20675C6.8732 9.234 8.54669 9.20675 10.5254 9.05412C10.8402 9.0005 11.1312 8.85218 11.3595 8.62893C11.5121 8.47626 11.6261 8.28938 11.692 8.08382C11.8869 7.48563 11.9827 6.85956 11.9754 6.23045C11.9972 5.92518 11.9972 4.08271 11.9972 3.75564ZM4.76907 6.55751V3.18328L7.99613 4.87857C7.09124 5.38007 5.89745 5.94699 4.76907 6.55751Z" fill="white"/>
</svg>
